<?xml version="1.0" standalone="no"?>
<!DOCTYPE svg PUBLIC "-//W3C//DTD SVG 20010904//EN"
 "http://www.w3.org/TR/2001/REC-SVG-20010904/DTD/svg10.dtd">
<svg version="1.0" xmlns="http://www.w3.org/2000/svg"
 width="1080.000000pt" height="1080.000000pt" viewBox="0 0 1080.000000 1080.000000"
 preserveAspectRatio="xMidYMid meet">
<metadata>
Created by potrace 1.11, written by Peter Selinger 2001-2013
</metadata>
<g transform="translate(0.000000,1080.000000) scale(0.100000,-0.100000)"
fill="#000000" stroke="none">
<path d="M0 10603 l0 -198 292 3 c285 3 378 11 333 27 -22 7 -44 16 -88 34
-16 6 -89 11 -170 12 -155 0 -325 18 -327 34 -2 16 32 32 37 17 7 -20 23 -3
23 24 0 45 17 62 73 74 81 16 372 36 452 30 76 -6 186 4 224 21 l24 10 -21 15
c-24 17 -19 44 9 44 12 0 21 -10 26 -27 13 -45 9 -358 -6 -503 -18 -172 -19
-187 -25 -412 -3 -112 -9 -196 -16 -209 -11 -19 -16 -20 -58 -13 -26 5 -97 8
-159 8 -132 -1 -141 -5 -210 -99 -43 -58 -73 -81 -73 -55 0 10 60 83 73 88 4
2 7 15 7 28 l0 25 -96 -3 c-122 -4 -132 -14 -86 -84 34 -53 34 -63 -1 -47 -12
6 -30 14 -40 17 -9 3 -20 14 -23 23 -27 78 -38 93 -78 103 -23 6 -51 15 -64
20 -13 6 -25 10 -27 10 -3 0 -5 -30 -5 -66 0 -63 1 -65 23 -58 12 4 31 13 42
20 29 20 51 19 30 -2 -28 -28 -14 -48 40 -58 28 -4 64 -14 80 -21 17 -7 43
-17 60 -22 22 -6 31 -16 35 -38 l5 -30 120 1 c66 1 177 5 248 9 163 9 162 11
154 -107 -4 -55 -13 -104 -26 -133 -19 -44 -20 -49 -5 -78 21 -41 114 -137
134 -137 8 0 29 -9 47 -19 62 -38 133 -42 692 -40 295 1 754 -3 1021 -9 269
-5 494 -6 507 -1 12 4 29 21 37 36 8 15 24 38 35 50 20 21 41 64 41 83 0 6
-317 7 -797 4 -439 -3 -811 -6 -828 -5 -248 5 -762 -2 -772 -11 -21 -17 -43
-1 -43 32 0 26 4 30 28 31 15 1 38 4 52 6 45 8 2263 7 2313 -1 31 -5 47 -12
47 -22 0 -8 3 -14 6 -14 13 0 163 123 205 168 34 37 52 49 67 45 17 -4 59 17
192 97 8 5 63 30 122 55 210 89 305 146 453 270 84 71 119 95 205 145 72 41
155 95 247 160 66 46 96 59 196 85 119 31 184 51 227 72 83 38 203 118 232
154 45 56 63 65 179 88 57 11 124 25 149 30 85 18 105 21 223 31 112 9 122 11
173 45 48 32 54 40 54 71 0 35 0 35 43 33 23 -1 51 1 62 4 11 4 111 16 223 27
146 14 211 25 234 37 79 46 76 45 116 32 20 -7 55 -20 77 -29 50 -21 270 -94
350 -116 49 -14 69 -26 110 -70 28 -29 63 -58 78 -63 31 -12 280 -14 342 -3
29 6 -13 11 -149 19 -103 7 -190 14 -192 16 -5 5 22 163 35 207 4 14 15 26 24
28 16 3 23 -18 31 -93 2 -16 4 -32 5 -34 0 -2 10 8 22 23 20 25 62 48 121 66
20 6 30 4 40 -7 11 -13 47 -15 270 -11 142 2 258 1 258 -4 0 -4 -7 -8 -15 -8
-8 0 -15 -6 -15 -14 0 -8 -3 -23 -7 -33 -4 -11 3 -7 16 10 17 21 31 27 60 27
89 0 124 -79 123 -278 -1 -69 -4 -138 -7 -154 -8 -33 -26 -35 -150 -12 -44 8
-123 19 -175 25 -52 6 -98 14 -103 18 -4 4 -1 27 8 51 8 24 13 45 10 48 -7 7
-72 -65 -91 -100 -12 -24 -18 -26 -51 -21 l-38 6 31 -26 c18 -15 35 -27 38
-27 4 0 23 -10 44 -23 20 -12 55 -28 77 -36 67 -22 142 -61 162 -84 26 -30 53
-74 53 -87 0 -6 14 -40 30 -75 30 -63 43 -74 85 -65 5 1 22 3 38 5 51 7 56 17
55 133 0 74 5 118 15 143 12 27 13 45 6 77 -5 24 -7 53 -4 65 3 12 9 110 14
217 6 131 14 210 25 240 9 25 16 62 16 83 0 34 4 40 38 54 20 8 71 21 112 28
68 12 47 13 -235 12 -250 0 -282 -2 -165 -7 192 -9 199 -11 184 -67 -6 -22 -9
-23 -158 -22 -216 1 -726 -10 -757 -16 -14 -3 -37 -2 -51 4 -16 6 -47 5 -92
-4 -52 -9 -99 -10 -200 -2 -72 6 -150 10 -173 9 -45 -1 -58 12 -22 23 20 7 20
7 -2 26 -12 10 -19 22 -15 26 4 4 212 10 462 14 250 3 457 9 461 12 3 4 -595
7 -1330 7 -1322 0 -1337 0 -1337 -20 0 -14 -12 -23 -48 -33 -56 -17 -170 -73
-227 -113 -37 -25 -185 -123 -230 -152 -11 -6 -42 -23 -70 -37 -183 -90 -209
-116 -361 -368 -69 -115 -179 -238 -295 -327 -137 -108 -229 -187 -331 -286
-53 -52 -100 -94 -105 -94 -4 0 -60 -54 -123 -121 l-116 -121 -564 1 c-311 1
-806 4 -1100 6 -294 3 -607 2 -695 -3 -88 -4 -165 -6 -171 -4 -29 9 -24 196 5
211 9 5 62 11 119 14 56 2 105 7 109 11 14 13 -14 40 -73 72 -32 17 -79 49
-103 69 l-43 38 8 86 c4 47 7 132 6 189 -1 117 -3 115 82 76 73 -33 186 -53
305 -54 l93 0 -7 27 c-9 36 -14 39 -109 53 -45 7 -128 23 -186 35 -58 13 -116
22 -130 22 l-25 -2 1 175 c1 258 21 459 53 518 14 27 55 29 109 6 32 -13 91
-15 479 -10 243 4 449 9 457 12 8 3 16 15 18 27 3 19 13 24 68 33 84 15 241
17 277 3 15 -5 42 -23 58 -38 55 -51 148 -111 172 -111 19 0 23 -4 19 -18 -12
-38 -10 -110 4 -127 10 -12 29 -16 84 -15 118 2 114 3 148 -45 37 -52 46 -53
22 -1 -13 26 -15 39 -7 47 8 8 96 5 314 -11 167 -12 326 -20 352 -17 47 4 50
3 98 -45 67 -67 152 -179 181 -238 13 -26 168 -189 180 -190 19 0 -35 92 -101
173 -19 23 -63 85 -97 139 -35 53 -93 135 -129 182 -105 137 -228 335 -222
357 5 19 -26 19 -1734 19 l-1739 0 0 -197z m6820 147 c0 -9 -5 -21 -12 -28
-17 -17 -48 -15 -48 4 0 9 -9 18 -20 21 -19 5 -26 23 -15 35 3 3 26 1 50 -5
31 -7 45 -16 45 -27z m-511 16 c311 -1 336 -2 339 -19 2 -9 9 -17 17 -17 7 0
15 -9 18 -20 3 -11 4 -20 4 -20 -10 0 -115 45 -125 53 -11 9 -13 5 -10 -23 3
-31 0 -35 -22 -38 -94 -10 -269 -48 -290 -62 -14 -10 -45 -20 -70 -23 -25 -2
-110 -18 -190 -35 -86 -19 -177 -32 -225 -33 -225 -3 -402 -69 -527 -197 -79
-80 -157 -142 -180 -142 -10 0 -17 4 -14 8 2 4 1 14 -4 22 -5 9 19 67 72 174
119 241 119 242 173 305 47 55 53 59 105 64 30 4 152 7 269 7 118 0 217 3 220
6 3 3 28 2 55 -2 28 -3 201 -7 385 -8z m-3401 -5 c8 -4 13 -11 13 -15 -3 -21
2 -26 26 -26 25 0 26 -1 11 -16 -10 -10 -21 -13 -29 -8 -21 13 -60 13 -127 1
-47 -8 -71 -8 -95 1 -18 6 -54 12 -80 13 -26 1 -43 6 -36 9 6 4 38 6 70 5 45
-2 59 0 59 11 0 14 -33 19 -89 14 -14 -1 -21 2 -17 9 9 13 274 15 294 2z m49
3 c-3 -3 -12 -4 -19 -1 -8 3 -5 6 6 6 11 1 17 -2 13 -5z m450 -40 c24 -26 43
-51 43 -56 0 -5 11 -24 25 -42 14 -18 25 -37 25 -42 0 -5 9 -20 20 -34 22 -28
26 -61 8 -57 -6 1 -13 -6 -15 -15 -3 -11 4 -18 19 -22 31 -6 -31 1 -112 13
-36 6 -80 15 -99 20 -42 13 -231 26 -369 26 -56 0 -102 4 -102 8 0 16 85 97
102 97 9 0 18 3 20 8 15 33 121 79 170 73 11 -1 20 7 23 22 8 31 48 45 134 46
64 1 65 1 108 -45z m-2577 16 c0 -5 -12 -10 -27 -10 -22 0 -25 2 -13 10 20 13
40 13 40 0z m112 -2 c-9 -9 -15 -9 -24 0 -9 9 -7 12 12 12 19 0 21 -3 12 -12z
m2098 -8 c0 -5 -4 -10 -10 -10 -5 0 -10 5 -10 10 0 6 5 10 10 10 6 0 10 -4 10
-10z m-440 -80 c0 -5 -4 -10 -10 -10 -5 0 -10 5 -10 10 0 6 5 10 10 10 6 0 10
-4 10 -10z"/>
<path d="M2730 10729 c0 -5 9 -9 20 -9 11 0 20 2 20 4 0 2 -9 6 -20 9 -11 3
-20 1 -20 -4z"/>
<path d="M3913 10794 c3 -3 -7 -41 -23 -84 -30 -81 -59 -263 -47 -294 11 -27
42 -15 40 14 -3 35 17 129 28 135 5 4 35 8 67 10 82 5 192 32 232 57 19 12 73
41 120 65 46 24 94 53 105 63 12 11 30 20 41 20 10 0 26 5 34 10 10 6 -44 10
-162 10 -97 0 -179 -4 -182 -8 -2 -4 5 -9 16 -9 12 -1 28 -9 37 -19 15 -15 13
-16 -19 -9 -26 5 -31 4 -20 -4 13 -9 12 -12 -7 -17 -12 -3 -25 -15 -28 -25 -5
-15 -16 -19 -54 -19 -37 0 -57 -7 -89 -30 -68 -49 -75 -40 -42 50 11 30 20 55
20 56 0 3 55 23 75 27 11 3 -18 5 -64 6 -46 0 -82 -2 -78 -5z"/>
<path d="M4660 10790 c0 -6 -12 -16 -27 -22 -44 -20 -165 -98 -196 -127 -37
-34 -59 -81 -60 -131 -1 -22 -6 -40 -10 -40 -5 0 -5 -10 -2 -21 4 -13 2 -25
-5 -29 -6 -4 -10 -24 -8 -46 l3 -39 80 83 c118 123 251 226 373 289 59 31 119
62 135 70 15 8 27 16 27 19 0 2 -70 4 -155 4 -99 0 -155 -4 -155 -10z"/>
<path d="M8008 10793 c6 -2 18 -2 25 0 6 3 1 5 -13 5 -14 0 -19 -2 -12 -5z"/>
<path d="M8937 10791 c28 -4 55 -10 59 -13 4 -4 2 -53 -5 -108 -6 -55 -11
-138 -11 -184 0 -115 -17 -273 -40 -370 -11 -45 -20 -110 -20 -146 -1 -36 -5
-99 -10 -140 -4 -42 -4 -112 0 -159 10 -89 -1 -179 -23 -193 -6 -4 -22 -8 -34
-8 -15 0 -23 -6 -23 -16 0 -13 7 -15 29 -11 15 3 33 1 38 -4 6 -6 76 -10 164
-10 176 0 364 -15 394 -32 24 -13 1005 -20 1190 -8 112 8 121 7 138 -12 16
-18 17 -15 17 83 l0 103 -21 -19 c-16 -14 -39 -19 -102 -21 -44 -1 -88 -5 -97
-8 -14 -6 -308 -11 -1018 -19 -221 -2 -262 0 -257 12 12 32 138 212 149 212
116 5 799 14 1034 14 l312 -1 0 104 c0 97 -8 122 -27 89 -19 -31 -52 -36 -265
-36 -117 0 -256 -5 -308 -11 -140 -15 -320 -20 -320 -9 0 6 -7 10 -16 10 -8 0
-13 -4 -9 -9 3 -5 1 -12 -5 -16 -12 -7 -13 15 -2 31 8 11 82 14 82 3 0 -4 8
-6 18 -4 9 2 22 4 27 5 6 0 2 5 -8 11 -11 7 -16 17 -12 29 5 15 1 18 -20 16
-16 -2 -25 2 -25 10 0 8 9 14 19 14 11 0 27 3 36 6 13 5 14 8 3 15 -10 7 -9 9
3 9 9 0 19 -7 23 -15 3 -8 11 -15 17 -15 8 0 8 4 -1 15 -7 8 -9 15 -4 16 156
11 518 26 636 25 l158 -1 0 73 c0 39 -2 72 -4 72 -3 0 -11 -7 -19 -15 -12 -12
-78 -15 -388 -19 -529 -6 -645 -12 -691 -39 -29 -15 -38 -27 -38 -46 0 -14 -9
-76 -21 -138 -22 -117 -26 -122 -81 -123 -14 0 -16 4 -8 23 12 27 46 166 64
262 25 132 68 318 82 359 8 22 26 86 40 141 14 55 30 105 35 111 15 18 -1 24
-69 24 -41 0 -71 -5 -81 -14 -13 -10 -30 -11 -88 -3 -40 6 -75 8 -78 6 -3 -3
-13 -42 -22 -87 -11 -51 -22 -82 -30 -82 -7 0 -13 -7 -13 -15 0 -10 -11 -14
-42 -13 -24 1 -71 -2 -105 -7 l-63 -8 0 115 c0 81 4 120 14 133 12 17 42 20
352 32 560 22 534 30 -91 30 -313 0 -547 -3 -518 -6z m618 -321 c3 -5 1 -10
-4 -10 -6 0 -11 5 -11 10 0 6 2 10 4 10 3 0 8 -4 11 -10z m-130 -46 c172 -6
209 -18 172 -56 -7 -7 -40 -47 -73 -88 -76 -96 -114 -134 -152 -154 -42 -22
-70 -64 -83 -127 -34 -169 -41 -189 -60 -189 -23 0 -24 20 -4 86 17 56 32 234
20 234 -5 0 -19 -9 -31 -21 -15 -14 -36 -21 -70 -21 -27 -1 -55 -6 -61 -11
-18 -13 -17 -5 21 172 29 138 35 155 55 163 34 12 153 26 171 20 8 -3 51 -7
95 -8z m315 -433 c0 -5 -9 -7 -20 -4 -11 3 -20 7 -20 9 0 2 9 4 20 4 11 0 20
-4 20 -9z m55 -1 c3 -5 1 -10 -4 -10 -6 0 -11 5 -11 10 0 6 2 10 4 10 3 0 8
-4 11 -10z m35 -36 c0 -2 -9 -4 -21 -4 -11 0 -18 4 -14 10 5 8 35 3 35 -6z
m-142 -59 c-3 -3 -9 2 -12 12 -6 14 -5 15 5 6 7 -7 10 -15 7 -18z m132 10 c0
-3 -9 -14 -20 -25 -22 -22 -25 -19 -10 11 10 17 30 27 30 14z m-451 -176 c33
1 34 0 18 -17 -10 -10 -17 -23 -17 -29 0 -12 -36 -56 -122 -149 l-48 -51 -47
8 c-27 4 -69 5 -95 2 l-48 -6 6 94 c3 52 8 103 9 114 2 11 4 23 4 27 2 14 41
17 171 11 74 -3 150 -5 169 -4z"/>
<path d="M10661 10796 c10 -9 139 -14 139 -6 0 6 -32 10 -72 10 -39 0 -69 -2
-67 -4z"/>
<path d="M10768 10709 c-16 -4 -61 -7 -100 -8 -40 0 -194 -3 -343 -6 -148 -3
-322 -5 -387 -5 l-116 -1 -4 -50 c-1 -28 1 -53 5 -56 14 -9 701 -2 742 7 53
13 112 12 136 0 22 -12 24 -4 9 34 -8 23 -7 24 13 17 12 -4 33 -25 47 -46 l25
-38 3 42 c2 22 2 58 0 79 -3 37 -4 38 -30 31z"/>
<path d="M9330 10690 c-24 -4 -53 -5 -63 -2 -16 4 -18 -1 -15 -54 l3 -59 39
-3 c25 -2 36 0 31 7 -3 6 -17 11 -31 11 -25 0 -30 14 -15 39 6 9 18 12 37 7
53 -12 57 -11 67 17 12 37 2 45 -53 37z"/>
<path d="M9210 10641 c0 -17 5 -33 10 -36 6 -4 10 8 10 29 0 20 -4 36 -10 36
-5 0 -10 -13 -10 -29z"/>
<path d="M9216 10575 c-3 -8 -1 -15 4 -15 6 0 10 7 10 15 0 8 -2 15 -4 15 -2
0 -6 -7 -10 -15z"/>
<path d="M6816 10373 c-8 -9 -89 -12 -366 -13 -152 -1 -200 -5 -218 -16 -32
-21 -18 -34 36 -34 26 0 53 -4 61 -9 10 -6 24 -5 41 4 23 12 45 11 156 -5 155
-23 316 -54 404 -80 36 -10 99 -24 140 -30 107 -17 377 -103 480 -152 74 -36
161 -102 225 -171 34 -36 77 -72 98 -80 20 -9 37 -21 37 -26 0 -6 5 -11 10
-11 9 0 -13 48 -49 110 -9 15 -17 33 -44 100 -8 19 -19 48 -26 63 -12 31 -8
47 15 47 12 0 13 -4 3 -21 -10 -20 -9 -21 11 -16 19 5 21 3 16 -21 -5 -20 -4
-23 3 -12 8 12 11 11 17 -5 4 -11 13 -27 20 -35 6 -8 21 -31 32 -51 11 -20 26
-47 34 -60 21 -37 94 -125 196 -232 84 -90 99 -112 162 -242 39 -78 70 -150
70 -158 0 -8 6 -28 14 -44 21 -42 34 -91 42 -156 3 -32 9 -56 12 -53 2 3 7 43
9 89 3 65 -1 102 -17 163 -12 43 -33 117 -45 164 -13 47 -31 108 -39 135 -9
28 -21 66 -27 85 -6 19 -17 49 -24 65 -7 17 -19 45 -26 63 -8 21 -25 40 -48
52 -33 17 -89 67 -276 244 -76 72 -141 116 -174 116 -12 0 -21 4 -21 8 0 4
-16 14 -35 21 -19 7 -35 17 -35 22 0 5 -7 9 -15 9 -9 0 -18 7 -21 15 -4 8 -12
15 -20 15 -8 0 -13 6 -12 13 2 7 -9 13 -26 15 -17 2 -30 11 -33 22 -5 19 -35
34 -88 46 -16 3 -40 13 -52 20 -27 17 -60 20 -87 9 -11 -5 -17 -5 -14 1 7 10
3 10 -292 19 -113 3 -209 2 -214 -2z m982 -283 c-14 -22 -24 -19 -15 5 4 8 11
15 17 15 6 0 6 -7 -2 -20z"/>
<path d="M7578 10283 c7 -3 16 -2 19 1 4 3 -2 6 -13 5 -11 0 -14 -3 -6 -6z"/>
<path d="M2960 10233 c0 -13 5 -23 10 -23 13 0 13 11 0 30 -8 12 -10 11 -10
-7z"/>
<path d="M1 10044 l-1 -181 77 -6 c60 -4 81 -3 94 9 21 19 26 18 32 -6 4 -16
14 -20 49 -20 23 -1 78 -3 121 -6 43 -3 77 -2 77 3 0 12 -44 52 -90 84 -19 13
-44 32 -55 42 -11 10 -40 33 -65 50 -25 16 -75 52 -111 79 -37 26 -71 48 -76
48 -5 0 -19 19 -30 43 l-22 42 0 -181z m79 6 c0 -6 10 -15 23 -19 19 -8 20
-10 5 -16 -11 -4 -24 -1 -33 9 -9 9 -21 16 -26 16 -5 0 -9 5 -9 10 0 6 9 10
20 10 11 0 20 -5 20 -10z"/>
<path d="M2984 10187 c3 -10 6 -24 6 -31 0 -38 100 -155 160 -186 36 -19 437
-15 590 5 61 8 80 19 80 45 0 33 -44 34 -341 15 -24 -2 -114 -6 -200 -10 -139
-7 -158 -6 -182 10 -15 9 -27 23 -27 30 0 7 -3 15 -7 17 -11 4 -53 65 -53 76
0 4 -7 17 -16 28 -14 17 -15 17 -10 1z"/>
<path d="M6035 10181 c-16 -4 -65 -26 -108 -49 -42 -23 -94 -46 -115 -51 -273
-74 -413 -121 -522 -176 -25 -12 -76 -35 -115 -50 -178 -68 -308 -133 -391
-196 -27 -21 -95 -59 -150 -84 -154 -71 -355 -175 -398 -206 -33 -24 -94 -46
-246 -91 -48 -14 -358 -166 -396 -195 -17 -13 -34 -23 -38 -23 -3 0 -27 -20
-53 -45 -25 -25 -50 -45 -55 -45 -5 0 -7 -4 -4 -9 3 -4 -12 -16 -34 -26 -22
-10 -40 -24 -40 -30 0 -7 -12 -21 -27 -31 -59 -38 -64 -51 -60 -146 3 -50 10
-94 17 -103 7 -8 13 -33 13 -55 0 -22 4 -43 8 -46 14 -8 11 -56 -3 -52 -13 5
-27 50 -54 168 -22 101 -17 99 -245 101 -107 1 -201 -1 -207 -5 -7 -4 -18 -4
-24 1 -7 4 -33 9 -58 10 -25 1 -130 7 -235 13 -104 6 -238 13 -296 17 -59 3
-119 3 -135 -1 -28 -7 -26 -9 30 -28 41 -14 73 -35 105 -67 55 -55 129 -115
154 -124 9 -4 17 -11 17 -17 0 -18 -46 -11 -78 13 -17 12 -59 42 -94 66 -35
25 -92 67 -126 94 -35 27 -78 53 -95 58 -46 14 -599 -5 -642 -21 -32 -12 -31
-19 5 -78 47 -77 37 -102 -40 -102 -164 0 -299 62 -620 285 -186 129 -212 145
-253 156 -45 12 -261 17 -364 9 l-63 -5 0 -95 c0 -56 4 -89 9 -82 13 21 530
19 573 -2 17 -9 37 -16 44 -16 7 0 15 -4 19 -9 6 -11 -28 -13 -235 -15 -195
-1 -366 9 -363 23 2 6 -2 11 -7 11 -6 0 -10 -4 -10 -10 0 -5 -7 -10 -15 -10
-13 0 -15 -26 -15 -171 0 -136 3 -169 13 -161 35 29 97 33 230 17 100 -12 217
-16 477 -16 190 1 406 -4 480 -11 74 -6 322 -12 550 -13 228 -2 674 -6 990
-10 l575 -7 37 -26 c25 -18 44 -42 55 -72 9 -25 18 -47 20 -49 1 -2 20 3 40
11 21 9 81 33 133 54 52 21 124 55 159 76 36 21 102 51 148 68 123 44 150 61
233 139 41 40 116 99 165 131 50 33 97 66 106 75 18 17 39 20 39 5 0 -5 -7
-10 -15 -10 -8 0 -15 -4 -15 -10 0 -12 30 -13 46 -2 6 4 13 14 16 22 3 8 32
26 64 38 121 48 138 57 208 115 72 59 153 102 281 151 39 15 97 40 130 55 139
65 496 193 640 230 204 52 395 81 533 81 70 0 96 -5 171 -34 48 -19 106 -43
127 -54 21 -10 64 -25 94 -32 54 -12 163 -49 350 -117 52 -19 118 -42 145 -52
28 -10 77 -30 110 -45 57 -26 74 -34 113 -56 9 -5 33 -16 52 -25 19 -8 67 -37
105 -65 39 -27 73 -50 77 -50 4 0 37 -21 73 -47 79 -57 183 -119 282 -169 74
-37 130 -89 205 -190 21 -27 42 -53 48 -59 6 -5 21 -20 33 -33 12 -13 35 -30
52 -38 36 -17 135 -107 135 -123 0 -6 5 -11 10 -11 6 0 10 -4 10 -10 0 -9 -65
22 -84 41 -6 5 -18 9 -29 9 -14 0 -17 5 -13 23 3 12 3 16 0 10 -9 -19 -20 -16
-75 22 -28 19 -56 35 -62 35 -5 0 -24 11 -41 24 -58 44 -378 195 -506 239
-111 38 -304 111 -415 157 -179 74 -342 132 -475 167 -155 41 -262 39 -392 -9
-168 -62 -286 -146 -433 -310 -55 -60 -39 -53 -325 -140 -122 -36 -314 -111
-450 -174 -121 -57 -329 -109 -700 -174 -202 -35 -327 -59 -417 -79 -254 -58
-848 -156 -1068 -176 -38 -4 -77 -8 -85 -10 -8 -2 -105 -8 -215 -14 -110 -7
-306 -20 -435 -31 -129 -10 -290 -21 -358 -25 -142 -7 -253 -36 -320 -85 -23
-16 -46 -30 -52 -30 -5 0 -10 -4 -10 -8 0 -5 -14 -24 -31 -43 -30 -33 -44 -59
-112 -219 -38 -90 -49 -153 -43 -245 3 -49 12 -127 20 -171 20 -111 15 -124
-40 -124 l-44 0 -2 73 c-4 206 10 341 46 422 60 134 59 130 26 164 -30 34 -50
40 -50 16 0 -8 -4 -15 -9 -15 -4 0 -6 11 -3 25 4 24 3 25 -22 14 -14 -7 -26
-15 -26 -18 0 -9 -123 -7 -137 2 -16 10 -5 37 13 30 8 -3 21 0 28 6 11 9 15 9
19 -1 4 -10 6 -10 6 1 1 11 4 11 17 0 13 -10 17 -10 24 1 13 21 2 31 -27 24
-19 -5 -24 -4 -19 5 6 9 -6 11 -47 7 -60 -5 -57 -7 -81 67 -7 21 -26 13 -27
-11 0 -12 -3 -11 -9 6 -5 12 -15 22 -22 22 -10 0 -14 19 -13 71 0 89 12 100
105 98 70 -2 169 9 411 47 175 27 205 29 215 13 5 -8 9 -7 14 1 5 8 15 10 26
5 18 -7 18 -7 0 -14 -17 -7 -17 -8 -2 -24 19 -18 27 -21 25 -9 -4 21 3 23 21
7 26 -24 25 -35 -2 -36 -18 -1 -19 -2 -5 -6 14 -4 15 -8 7 -18 -6 -8 -18 -11
-26 -8 -8 3 -14 0 -14 -7 0 -15 128 -8 139 7 3 5 80 24 171 41 151 29 207 38
430 72 41 7 134 26 205 42 119 28 127 32 100 41 -21 7 -103 6 -270 -4 -230
-13 -325 -14 -785 -8 -179 2 -228 -1 -385 -24 -147 -22 -214 -27 -365 -26
-102 0 -180 3 -175 5 20 8 4 72 -21 89 -22 14 -25 13 -57 -15 -29 -25 -55 -34
-158 -55 -68 -14 -189 -34 -269 -45 -213 -29 -282 -39 -313 -46 l-27 -6 0
-250 c0 -217 2 -249 14 -238 8 6 16 23 18 38 2 18 16 35 45 55 34 22 47 40 64
87 24 65 57 90 121 90 62 0 70 -15 65 -110 -33 -659 -24 -612 -126 -668 -54
-30 -73 -35 -132 -36 l-69 0 0 -79 c0 -49 4 -76 10 -72 6 3 10 12 10 19 0 24
49 58 97 67 61 11 154 40 170 51 13 10 97 3 223 -18 146 -25 130 -7 130 -142
-1 -176 -15 -304 -36 -319 -10 -7 -43 -14 -73 -14 l-56 -2 70 -9 c66 -9 107
-29 92 -44 -4 -4 -37 -6 -74 -5 -38 2 -179 4 -315 5 l-248 1 1 -875 c1 -550 5
-845 10 -795 5 44 8 157 8 250 -1 94 2 316 6 495 6 236 5 358 -4 444 -11 106
-11 120 3 135 17 16 78 22 406 37 104 5 154 11 175 23 29 15 26 16 -120 24
-159 8 -175 11 -175 26 0 16 55 40 77 35 12 -3 24 -1 27 5 4 5 14 7 24 4 15
-6 15 -5 2 10 -8 9 -21 24 -29 32 -7 9 -16 14 -19 10 -4 -3 -1 -9 5 -13 8 -5
9 -12 2 -22 -7 -12 -10 -11 -15 7 -6 23 -43 38 -58 23 -7 -7 -3 -10 9 -10 19
-1 19 -1 2 -11 -19 -11 -41 -3 -32 12 4 5 -13 9 -37 10 -24 0 -60 1 -80 2 -32
2 -37 -1 -32 -15 3 -10 0 -18 -6 -18 -6 0 -8 5 -5 10 3 6 -3 10 -14 10 -10 0
-22 6 -24 13 -4 9 -8 8 -16 -3 -8 -11 -6 -16 6 -21 12 -4 13 -8 5 -13 -15 -9
-32 1 -32 20 0 13 -3 13 -22 0 -32 -22 -38 -20 -38 14 l0 30 299 0 c165 0 306
3 314 6 30 11 44 -20 35 -78 -9 -54 -12 -115 -23 -403 -7 -205 -23 -446 -29
-452 -3 -3 -36 -5 -75 -4 -94 1 -162 -25 -172 -65 -4 -16 -13 -99 -19 -184 -6
-85 -14 -180 -17 -211 -4 -44 -2 -59 12 -72 16 -17 26 -18 175 -21 l75 -1 1
-65 c1 -36 4 -82 8 -102 3 -23 1 -40 -5 -44 -6 -4 -59 -8 -118 -9 l-106 -2
-10 -42 -9 -43 -41 5 c-22 3 -94 9 -160 13 -66 4 -126 11 -132 17 -10 7 -13
-26 -13 -161 l0 -170 108 -7 c59 -4 134 -8 166 -9 40 -1 61 -5 64 -14 2 -8 -3
-53 -12 -100 -10 -48 -20 -116 -24 -152 l-7 -65 -40 3 c-22 2 -68 10 -103 17
-35 7 -72 10 -84 7 -11 -3 -24 1 -29 9 -12 20 -11 93 2 106 13 13 -9 53 -28
53 -10 0 -13 -42 -13 -179 l0 -178 23 4 c21 4 22 8 19 75 l-4 70 48 -6 c27 -4
84 -9 127 -12 l77 -6 0 -33 c0 -19 4 -36 9 -40 14 -8 29 84 35 219 9 184 27
203 174 189 l87 -8 3 -50 c2 -27 -1 -72 -7 -100 -19 -84 -31 -258 -19 -272 7
-9 5 -14 -8 -19 -11 -3 -35 -12 -54 -19 -34 -14 -33 -14 43 -14 l77 -1 0 28
c0 52 19 99 43 106 28 7 119 6 177 -2 42 -7 44 -9 55 -52 l11 -45 152 -3 c170
-3 157 -9 152 76 -1 23 2 48 8 55 13 17 48 130 62 200 l12 59 41 -6 c23 -3 57
-5 75 -5 25 -1 35 -6 39 -21 3 -12 24 -29 52 -41 29 -12 60 -36 80 -62 l33
-42 -4 -155 c-4 -120 -8 -162 -22 -187 -16 -31 -20 -33 -71 -33 -49 0 -56 -3
-79 -32 -23 -30 -28 -32 -46 -20 -17 10 -28 10 -56 0 -53 -19 -67 -5 -80 83
-11 80 -20 103 -35 93 -7 -4 -8 -36 -4 -89 l7 -83 -43 -25 c-50 -30 -61 -27
-54 13 3 16 1 32 -5 35 -5 3 -10 -2 -10 -13 0 -10 -11 -31 -24 -45 l-25 -27
25 -6 c13 -3 57 -3 97 1 96 9 237 9 317 -2 l65 -8 2 -35 c3 -34 25 -173 45
-278 9 -48 12 -53 31 -48 11 3 26 1 33 -5 8 -6 25 -6 53 3 35 11 41 17 41 40
0 18 -7 29 -20 33 -12 4 -24 23 -32 53 -8 26 -18 47 -23 47 -6 0 -12 -28 -15
-62 -6 -74 -16 -89 -25 -37 -3 22 -13 57 -21 79 -21 61 -18 69 38 112 115 87
131 93 266 93 66 0 127 -3 136 -6 20 -8 20 -43 0 -114 -41 -147 -40 -155 20
-140 17 5 135 13 261 20 381 18 365 18 365 -2 0 -14 7 -16 38 -11 20 2 51 9
67 14 17 5 53 10 81 12 l52 4 5 -49 c4 -27 2 -61 -4 -75 -13 -35 -4 -141 14
-161 7 -10 38 -73 67 -142 30 -69 62 -134 72 -146 10 -11 39 -72 64 -135 42
-106 228 -488 243 -499 3 -3 22 -41 40 -85 82 -191 115 -261 131 -280 20 -22
137 -223 214 -367 17 -31 52 -92 77 -135 57 -96 72 -142 99 -308 12 -71 28
-146 36 -165 7 -19 18 -65 24 -103 6 -37 15 -80 21 -95 6 -15 24 -78 40 -139
16 -62 38 -132 48 -156 29 -67 35 -107 18 -107 -9 0 -17 6 -20 13 -3 9 -7 9
-20 -2 -20 -16 -12 -35 10 -26 13 4 14 3 3 -10 -11 -13 17 -15 258 -15 223 0
270 2 266 13 -3 8 3 20 12 28 10 8 15 9 12 4 -4 -6 -2 -17 3 -25 7 -11 8 -7 5
12 -5 31 9 48 16 20 3 -10 13 -19 22 -19 24 0 20 10 -14 35 -24 18 -30 20 -30
7 0 -8 -9 -15 -19 -15 -11 0 -21 -6 -24 -12 -2 -7 -8 -10 -12 -6 -5 5 -2 26 5
47 8 26 10 58 6 92 -6 43 -5 51 8 46 8 -3 20 1 26 9 7 8 19 14 26 14 8 0 15
10 15 23 1 12 2 27 4 32 1 6 3 19 4 30 2 19 3 19 13 -2 14 -30 28 -29 28 1 0
25 -24 41 -42 29 -7 -3 -8 -1 -4 6 4 7 17 11 28 9 16 -2 27 8 44 41 13 24 21
47 19 51 -3 5 -1 10 3 12 13 5 68 127 82 180 19 72 9 156 -21 179 -14 11 -18
19 -10 19 9 0 11 8 7 25 -4 14 -2 25 3 25 14 0 51 -130 51 -180 0 -74 -56
-240 -98 -293 -5 -6 -13 -40 -17 -74 -6 -54 -5 -63 9 -63 9 0 16 8 16 20 0 23
10 26 28 8 9 -9 16 -8 30 5 16 16 16 20 1 46 l-16 28 71 12 c39 7 105 20 146
29 92 19 266 22 303 5 15 -7 37 -17 50 -22 52 -23 215 -33 481 -32 203 2 281
-1 286 -10 7 -10 100 -15 209 -10 29 1 32 3 21 16 -11 13 -10 14 6 9 10 -4 25
-11 31 -17 9 -6 15 -4 19 7 3 8 21 18 40 22 63 12 26 17 -97 15 -109 -2 -121
0 -115 14 3 9 6 19 6 21 0 2 7 4 15 4 8 0 12 6 9 14 -7 19 -44 28 -44 11 0
-15 -46 -26 -104 -24 -27 2 -32 3 -15 6 24 4 26 6 15 29 -11 24 -42 41 -54 29
-4 -4 1 -11 11 -16 9 -6 15 -14 12 -20 -11 -17 -23 -9 -30 19 l-6 28 -78 -4
c-65 -3 -79 -1 -84 12 -3 8 -2 18 4 21 5 4 12 -1 15 -9 10 -25 24 -19 24 10 0
14 -4 23 -10 19 -13 -8 -13 1 0 26 8 15 7 19 -4 19 -10 0 -13 -6 -10 -15 8
-21 -3 -19 -28 5 l-22 20 22 0 c11 0 23 4 26 9 6 8 67 24 292 75 81 18 131 36
184 66 85 49 121 62 238 90 47 11 129 39 181 61 96 41 345 100 487 115 l61 6
13 -78 c28 -172 143 -509 198 -584 14 -19 101 -109 193 -200 123 -121 164
-168 156 -176 -8 -8 -16 -5 -29 10 -21 26 -25 1 -4 -26 12 -17 76 -18 1092
-18 628 0 1073 4 1064 9 -28 17 -309 31 -405 21 -148 -16 -138 -19 -168 53
-23 56 -50 131 -94 257 -9 25 -24 56 -35 69 -10 13 -18 31 -19 40 0 9 -9 30
-19 46 -11 17 -33 57 -50 90 -36 72 -50 96 -74 127 -9 13 -29 42 -44 64 -27
42 -70 104 -139 204 -21 30 -65 76 -97 102 -33 26 -73 67 -90 90 -46 66 -207
200 -222 185 -3 -2 19 -25 48 -50 29 -25 72 -65 94 -89 23 -24 80 -83 127
-133 85 -89 121 -134 152 -188 9 -15 24 -37 33 -48 31 -36 138 -239 172 -324
4 -11 23 -54 43 -95 72 -153 86 -188 107 -261 25 -93 25 -106 -2 -115 -38 -13
-821 -7 -870 7 -62 16 -221 153 -298 254 -36 49 -164 179 -285 290 -33 30 -76
60 -95 66 -56 17 -172 100 -202 144 -14 22 -34 62 -42 89 -26 79 -49 212 -42
237 4 14 34 43 71 69 35 25 69 54 75 66 6 11 28 33 47 50 20 16 79 71 131 122
53 50 100 92 104 92 5 0 27 19 50 42 35 36 42 39 50 25 19 -35 58 -7 58 42 0
24 6 25 40 6 14 -8 34 -14 44 -15 11 0 40 -13 66 -30 25 -16 60 -32 76 -36
l29 -5 0 143 c0 128 3 149 24 198 13 30 30 63 39 73 9 10 21 43 27 75 l12 57
427 6 c235 4 450 4 478 0 75 -9 81 -26 39 -106 -34 -64 -34 -66 -23 -128 20
-108 84 -201 167 -244 11 -6 58 -18 105 -28 149 -29 159 -34 170 -74 5 -20 10
-62 10 -94 0 -64 10 -91 40 -107 30 -16 169 -40 231 -40 51 0 59 -3 75 -27 26
-40 32 -93 23 -181 -5 -42 -14 -171 -19 -287 -16 -357 -41 -622 -69 -733 l-18
-72 299 0 298 0 0 1691 0 1690 -36 -27 c-19 -15 -41 -35 -47 -44 -7 -10 -37
-25 -68 -34 -31 -9 -59 -23 -63 -31 -4 -12 -27 -15 -114 -15 -99 0 -111 2
-123 20 -15 22 -89 43 -196 55 -66 7 -66 7 -78 76 -7 36 -8 37 -103 68 -54 17
-103 31 -110 31 -7 0 -11 4 -7 9 3 5 22 8 43 5 20 -2 47 -5 60 -6 l23 -3 -1
189 c-1 153 -4 196 -17 224 -16 33 -15 35 1 48 19 14 140 28 196 22 l35 -3 3
-65 c1 -36 -3 -85 -11 -110 -12 -44 -14 -45 -61 -52 -47 -7 -66 -19 -66 -45 0
-17 10 -16 24 2 10 13 37 13 206 5 107 -6 227 -8 265 -5 40 3 108 0 158 -8
l87 -14 0 450 0 449 -297 -1 c-164 -1 -444 2 -623 7 -179 5 -335 5 -347 1 -12
-4 -26 -16 -31 -26 -5 -10 -12 -137 -16 -283 -3 -146 -10 -314 -16 -374 -6
-64 -6 -115 -1 -125 8 -13 11 -11 16 12 5 19 15 29 34 33 14 3 35 9 46 14 11
4 49 13 85 20 71 13 100 25 100 42 0 7 -18 9 -55 4 -51 -6 -55 -5 -55 14 0 11
7 36 15 56 14 35 15 35 67 32 l53 -3 3 -163 c3 -177 -4 -208 -41 -196 -12 4
-92 10 -177 13 l-155 6 3 53 c5 64 -13 70 -21 7 -2 -26 -7 -49 -11 -52 -8 -9
-54 -8 -156 1 -148 14 -203 18 -295 20 -49 2 -96 3 -102 4 -8 1 -13 17 -13 37
0 22 -5 35 -13 35 -21 0 -40 108 -33 186 3 38 7 94 9 124 2 55 2 55 32 52 35
-2 112 -41 119 -59 6 -14 -37 -135 -61 -172 -9 -15 -11 -27 -5 -33 10 -10 25
14 76 120 29 59 32 91 12 130 -9 19 -11 44 -6 87 8 71 -2 208 -30 395 -27 185
-27 208 5 216 14 3 78 -1 143 -11 123 -17 245 -21 1225 -33 l517 -7 -1 390
c-1 230 -5 372 -10 345 -4 -25 -8 -181 -8 -346 -1 -245 -4 -304 -15 -313 -18
-15 -427 -13 -1141 5 -519 13 -761 27 -779 44 -5 5 -13 53 -17 107 -12 144
-10 147 181 255 176 99 346 203 535 329 72 47 165 105 207 128 l77 42 123 -7
c68 -4 274 -8 458 -8 184 -1 347 -5 363 -10 l27 -8 0 76 0 76 -197 -6 c-109
-3 -307 -2 -440 2 l-242 6 -9 27 c-9 26 -15 28 -128 45 -112 16 -132 16 -334
1 -341 -26 -422 -27 -548 -5 -174 30 -263 66 -299 119 -43 63 -33 88 129 310
69 94 158 209 233 303 8 10 33 48 56 85 24 38 48 75 55 83 22 27 85 209 105
303 25 122 24 208 -5 351 -24 118 -83 257 -141 336 -92 125 -261 291 -360 355
-102 66 -115 85 -115 172 0 37 -6 95 -14 128 -8 33 -17 87 -21 120 -15 127
-38 186 -100 255 -27 30 -56 69 -163 219 -20 29 -92 114 -102 121 -7 5 -61 87
-135 205 -74 117 -123 171 -236 260 -150 118 -679 333 -1004 409 -60 14 -170
39 -243 56 -267 62 -424 81 -507 61z m145 -131 c20 -6 21 -8 5 -8 -11 0 -29 3
-40 8 -25 11 1 11 35 0z m83 -7 c-7 -2 -19 -2 -25 0 -7 3 -2 5 12 5 14 0 19
-2 13 -5z m50 0 c-7 -2 -19 -2 -25 0 -7 3 -2 5 12 5 14 0 19 -2 13 -5z m-246
-9 c-3 -3 -12 -4 -19 -1 -8 3 -5 6 6 6 11 1 17 -2 13 -5z m77 -100 c17 -7 22
-44 6 -44 -5 0 -10 -9 -10 -21 0 -11 5 -17 10 -14 6 3 10 -3 10 -14 0 -12 7
-21 15 -21 8 0 15 -4 15 -10 0 -5 -10 -10 -22 -9 -55 0 -258 -50 -363 -90 -42
-17 -121 -43 -140 -48 -11 -3 -29 -8 -40 -13 -11 -4 -60 -22 -110 -40 -49 -18
-104 -41 -122 -51 -19 -11 -40 -19 -47 -19 -8 0 -16 -3 -18 -7 -4 -11 -130
-73 -145 -73 -7 0 -13 -5 -13 -11 0 -7 -10 -9 -24 -7 -15 3 -23 1 -20 -6 2 -6
-20 -22 -49 -35 -28 -14 -54 -27 -57 -31 -6 -6 -56 -39 -85 -55 -23 -12 -167
-107 -175 -115 -3 -3 -18 -12 -35 -20 -16 -8 -36 -21 -44 -29 -13 -11 -19 -8
-43 20 -32 39 -33 47 -13 73 20 27 42 8 26 -22 -8 -15 -6 -23 9 -37 11 -10 23
-15 27 -11 4 4 1 11 -7 16 -9 6 -13 22 -11 48 2 31 -3 45 -20 61 -13 12 -18
21 -11 21 6 0 14 -4 17 -10 9 -15 25 -12 25 5 0 8 -6 15 -12 16 -10 0 -10 2
-1 5 17 7 53 -14 53 -31 0 -7 -5 -15 -12 -17 -6 -2 -8 -10 -4 -16 4 -7 12 -10
17 -6 12 7 9 74 -4 92 -18 23 6 12 28 -14 13 -15 28 -23 34 -19 8 5 4 14 -14
30 -14 13 -25 30 -24 37 0 10 2 10 6 1 2 -7 16 -13 30 -13 20 0 23 3 14 13
-18 23 -1 27 21 5 16 -16 22 -18 29 -7 6 10 3 15 -11 17 -11 2 -20 10 -20 17
0 18 17 28 25 15 10 -16 28 -12 21 5 -7 19 3 19 28 0 24 -18 45 -20 28 -3 -7
7 -12 21 -11 32 0 20 1 20 8 2 5 -14 10 -16 15 -8 4 7 4 17 1 22 -10 16 26 25
37 9 7 -10 8 -8 5 9 -6 26 10 29 28 5 7 -9 17 -13 24 -9 9 6 9 12 -3 25 -22
24 -7 35 17 14 19 -17 19 -17 13 5 -6 18 -3 22 12 22 11 0 23 7 26 16 6 15 8
15 26 -1 24 -22 38 -14 15 9 -15 15 -15 16 0 16 9 0 23 7 32 15 8 8 19 13 24
9 5 -3 12 2 15 10 3 9 12 16 19 16 7 0 26 6 42 14 15 8 39 19 53 24 14 6 50
22 79 36 30 14 60 26 67 26 6 0 32 9 56 20 25 11 69 25 99 31 30 6 59 15 64
19 6 4 33 12 60 19 28 7 66 16 85 21 19 5 46 11 60 14 25 5 244 54 247 55 1 1
8 -2 17 -5z m59 -11 c-7 -2 -19 -2 -25 0 -7 3 -2 5 12 5 14 0 19 -2 13 -5z
m60 0 c-7 -2 -19 -2 -25 0 -7 3 -2 5 12 5 14 0 19 -2 13 -5z m-16 -109 c-3 -3
-12 -4 -19 -1 -8 3 -5 6 6 6 11 1 17 -2 13 -5z m208 -88 c55 -15 119 -45 111
-53 -2 -2 -13 0 -24 6 -11 6 -27 8 -35 5 -8 -3 -18 -1 -22 5 -9 16 -32 13 -39
-5 -4 -12 -1 -14 14 -9 24 8 29 -20 5 -29 -17 -6 -21 -36 -5 -36 6 0 10 -7 10
-15 0 -8 6 -12 14 -9 8 3 17 0 21 -7 6 -9 0 -10 -21 -5 -150 33 -284 36 -406
7 -46 -10 -110 -24 -143 -31 -180 -34 -536 -164 -770 -280 l-60 -30 -20 25
c-25 30 -35 32 -35 6 0 -14 -5 -18 -20 -14 -14 4 -20 0 -20 -11 0 -9 7 -16 15
-16 24 0 17 -20 -11 -30 -33 -13 -57 -13 -49 0 3 6 15 10 26 10 10 0 19 5 19
10 0 16 -33 26 -38 12 -2 -7 -12 -12 -22 -12 -10 0 -20 -5 -22 -12 -3 -7 -10
-8 -17 -4 -9 6 -8 13 8 27 11 10 22 19 25 19 2 0 28 16 57 35 30 19 57 35 61
35 4 0 29 15 55 33 27 19 71 44 98 57 28 12 104 49 170 81 199 96 607 222 774
238 135 13 242 12 296 -3z m95 -166 c13 -8 13 -10 -2 -10 -9 0 -20 5 -23 10
-8 13 5 13 25 0z m-1913 -126 c-3 -3 -12 -4 -19 -1 -8 3 -5 6 6 6 11 1 17 -2
13 -5z m-207 -30 c0 -8 -5 -12 -10 -9 -6 4 -8 11 -5 16 9 14 15 11 15 -7z
m-32 -6 c-2 -6 -10 -14 -16 -16 -7 -2 -10 2 -6 12 7 18 28 22 22 4z m162 -2
c0 -3 -4 -8 -10 -11 -5 -3 -10 -1 -10 4 0 6 5 11 10 11 6 0 10 -2 10 -4z
m-201 -30 c10 -12 9 -13 -7 -9 -28 7 -35 -11 -14 -34 24 -27 52 -36 52 -18 0
8 7 15 16 15 10 0 14 6 11 14 -4 10 0 12 14 9 10 -3 19 0 19 6 0 6 9 11 20 11
20 0 20 0 1 -19 -11 -11 -29 -25 -41 -31 -12 -6 -29 -18 -38 -25 -9 -7 -68
-55 -131 -107 -62 -51 -125 -102 -140 -112 -14 -10 -61 -61 -105 -113 -72 -86
-80 -92 -96 -78 -21 19 -30 19 -30 0 0 -8 -4 -15 -10 -15 -5 0 -10 4 -10 9 0
6 5 13 10 16 15 9 12 35 -3 35 -8 0 -25 -21 -38 -47 -24 -48 -64 -109 -83
-128 -15 -13 -96 -123 -96 -129 0 -9 -83 -141 -94 -151 -7 -5 -25 -31 -40 -57
-18 -31 -35 -48 -47 -48 -15 0 -17 4 -10 18 27 53 33 73 28 91 -3 12 -1 23 4
26 4 3 5 13 2 22 -5 12 -2 15 9 11 12 -5 17 8 26 64 7 46 19 83 35 105 59 83
133 154 205 199 42 26 79 52 80 56 2 4 8 8 14 8 6 0 21 11 34 25 13 14 28 25
34 25 5 0 10 4 10 10 0 14 32 50 45 50 5 0 18 14 27 30 9 17 24 30 32 30 8 0
17 9 21 20 3 11 18 29 33 41 15 11 43 35 62 52 75 69 120 99 120 83 0 -9 7
-19 15 -22 8 -4 15 -12 15 -20 0 -8 5 -14 10 -14 17 0 11 26 -10 45 -26 24
-25 39 3 53 12 6 23 11 23 11 1 1 7 -5 13 -13z m236 -116 c3 -5 1 -10 -4 -10
-6 0 -11 5 -11 10 0 6 2 10 4 10 3 0 8 -4 11 -10z m485 -20 c-20 -13 -33 -13
-25 0 3 6 14 10 23 10 15 0 15 -2 2 -10z m-130 -50 c0 -5 -4 -10 -9 -10 -6 0
-13 5 -16 10 -3 6 1 10 9 10 9 0 16 -4 16 -10z m-90 -10 c0 -5 -5 -10 -11 -10
-5 0 -7 5 -4 10 3 6 8 10 11 10 2 0 4 -4 4 -10z m60 -5 c0 -5 -55 -35 -65 -35
-3 0 -5 5 -5 10 0 6 9 10 20 10 11 0 20 5 20 10 0 6 7 10 15 10 8 0 15 -2 15
-5z m-270 -36 c0 -5 -4 -9 -10 -9 -5 0 -10 7 -10 16 0 8 5 12 10 9 6 -3 10
-10 10 -16z m-40 -24 c0 -12 -19 -12 -23 0 -4 9 -1 12 9 8 7 -3 14 -7 14 -8z
m-60 -165 c0 -5 -7 -10 -15 -10 -8 0 -15 5 -15 10 0 6 7 10 15 10 8 0 15 -4
15 -10z m-40 -30 c0 -5 -5 -10 -11 -10 -5 0 -7 5 -4 10 3 6 8 10 11 10 2 0 4
-4 4 -10z m-594 -72 c-3 -7 -9 -21 -12 -30 -4 -10 -11 -18 -16 -18 -5 0 -7 6
-4 13 3 6 9 20 12 30 4 9 11 17 16 17 5 0 7 -6 4 -12z m-3089 -170 c-3 -8 -6
-5 -6 6 -1 11 2 17 5 13 3 -3 4 -12 1 -19z m1711 -63 c-2 -47 -6 -85 -10 -85
-10 0 -11 154 -1 163 13 13 14 6 11 -78z m-2444 -15 c16 -17 26 -33 23 -36
-11 -12 -77 37 -77 57 0 18 26 8 54 -21z m2343 -66 c-3 -3 -12 -4 -19 -1 -8 3
-5 6 6 6 11 1 17 -2 13 -5z m933 -64 c0 -5 -4 -10 -9 -10 -6 0 -13 5 -16 10
-3 6 1 10 9 10 9 0 16 -4 16 -10z m4990 -140 c0 -5 -2 -10 -4 -10 -3 0 -8 5
-11 10 -3 6 -1 10 4 10 6 0 11 -4 11 -10z m-3047 -330 c112 -23 118 -25 110
-45 -3 -8 0 -15 5 -15 16 0 59 -46 67 -70 4 -11 2 -20 -4 -20 -6 0 -11 5 -11
10 0 6 -4 10 -10 10 -14 0 -13 -33 2 -48 13 -13 -6 -42 -28 -42 -8 0 -14 -3
-14 -7 0 -5 -59 -9 -131 -9 -156 -2 -361 -36 -403 -67 -17 -12 -10 -14 57 -11
43 2 79 -1 82 -6 3 -6 -3 -10 -14 -10 -11 0 -28 -14 -41 -35 -16 -26 -28 -35
-49 -35 -28 0 -106 -29 -196 -73 -58 -29 -139 -91 -193 -148 -20 -21 -43 -39
-51 -39 -8 0 -12 -3 -8 -6 3 -4 -10 -21 -29 -39 -30 -29 -36 -42 -39 -87 -8
-98 -5 -185 8 -205 4 -6 2 -15 -5 -20 -9 -5 -11 -23 -8 -55 3 -32 9 -45 16
-40 11 6 19 59 28 164 1 20 8 43 14 50 6 8 10 23 8 34 -2 10 -1 13 1 7 3 -10
9 -9 20 3 9 9 26 14 40 11 12 -2 23 -1 23 3 0 4 96 8 213 8 116 1 227 4 246 6
46 6 119 17 139 21 169 35 209 41 330 50 35 3 67 7 71 10 5 2 50 8 101 11 70
5 91 4 86 -5 -4 -7 -16 -9 -26 -6 -14 5 -16 1 -12 -22 l5 -28 -21 25 c-17 20
-21 21 -22 8 0 -9 6 -18 13 -21 8 -3 7 -9 -6 -19 -17 -13 -17 -15 -3 -27 14
-12 16 -12 10 3 -4 11 -1 16 10 16 9 0 19 7 23 16 3 8 12 13 19 10 8 -3 14 1
14 9 0 8 7 15 15 15 24 0 18 -15 -30 -65 -25 -25 -43 -51 -40 -56 4 -5 2 -9
-4 -9 -5 0 -11 5 -13 12 -8 22 -15 -6 -9 -32 l7 -24 23 23 c14 14 29 20 39 16
13 -5 11 -10 -13 -30 -17 -13 -35 -24 -40 -25 -6 0 -21 -13 -35 -30 -14 -16
-30 -30 -37 -30 -7 0 -13 -4 -13 -10 0 -5 -7 -10 -15 -10 -8 0 -15 -4 -15 -10
0 -5 -6 -10 -14 -10 -18 0 -96 -51 -96 -62 0 -8 -50 -31 -59 -28 -2 1 -7 -2
-10 -7 -11 -16 -91 -63 -106 -63 -8 0 -15 -4 -15 -8 0 -18 -278 -122 -325
-122 -8 0 -15 -4 -15 -10 0 -24 131 -6 260 36 60 20 220 101 246 125 11 10 24
19 28 19 4 0 26 13 49 28 23 16 91 57 151 92 100 57 138 85 204 148 12 12 20
27 17 32 -3 6 1 10 10 10 10 0 13 -5 9 -12 -5 -7 -3 -8 5 -3 9 5 9 11 3 17 -7
7 -4 21 8 42 15 28 16 35 4 51 -8 10 -14 24 -14 29 0 6 5 4 10 -4 9 -13 11
-13 20 0 8 12 10 9 10 -13 0 -23 2 -26 13 -15 21 23 38 58 28 58 -6 0 -15 -8
-20 -17 -10 -17 -10 -17 -11 0 0 9 4 17 10 17 5 0 16 12 25 28 l16 27 -4 -27
c-3 -22 0 -28 14 -28 15 0 19 8 19 40 0 33 3 40 20 40 11 0 20 5 20 10 0 6 -8
10 -17 8 -14 -2 -18 4 -17 27 3 56 5 61 13 40 5 -11 6 -24 3 -29 -2 -5 1 -6 9
-4 8 3 13 11 11 18 -3 11 0 11 12 0 14 -10 16 -10 17 6 1 11 1 23 0 28 -3 15
21 66 30 66 5 0 10 -8 10 -17 1 -10 5 7 9 37 5 30 10 67 13 83 4 23 2 25 -10
15 -8 -6 -12 -20 -10 -30 3 -10 1 -21 -4 -24 -5 -3 -7 -9 -4 -13 2 -5 -2 -17
-10 -27 -14 -18 -14 -18 -16 6 0 14 -3 36 -5 50 -2 14 -5 33 -5 43 0 9 -7 17
-15 17 -12 0 -13 4 -4 21 12 22 8 35 -9 25 -6 -4 -8 -13 -5 -20 3 -8 1 -17 -4
-20 -5 -3 -7 -18 -5 -33 4 -26 3 -27 -11 -10 -8 11 -12 25 -10 32 3 7 -1 24
-10 37 -15 23 -18 52 -10 95 4 20 10 22 72 22 37 0 76 3 87 5 150 35 206 46
236 46 l37 0 13 -85 c11 -78 11 -86 -6 -105 -11 -12 -13 -20 -6 -20 9 0 9 -5
-1 -22 -25 -46 0 -118 40 -118 18 0 23 -4 18 -16 -3 -8 -2 -12 4 -9 6 3 10 1
10 -4 0 -6 7 -11 15 -11 9 0 15 10 16 28 1 21 3 19 9 -13 5 -22 20 -83 35
-135 23 -82 27 -118 30 -265 4 -209 14 -310 47 -472 10 -51 16 -62 29 -58 17
6 49 -18 49 -36 0 -5 11 -21 25 -36 42 -47 103 -132 111 -155 4 -12 17 -31 30
-41 13 -10 25 -28 25 -40 1 -20 2 -21 6 -2 3 11 10 25 15 30 8 7 8 6 3 -4 -6
-10 -4 -12 4 -7 9 6 9 12 -3 25 -9 10 -16 24 -16 32 0 8 -7 24 -15 36 -8 12
-12 28 -9 36 3 8 1 18 -5 22 -6 3 -11 19 -11 35 0 16 -5 32 -10 35 -6 4 -9 12
-8 18 1 7 -6 26 -15 44 -9 18 -17 43 -17 58 0 14 -4 25 -10 25 -5 0 -10 -7
-10 -15 0 -8 -4 -15 -10 -15 -20 0 -10 27 15 40 14 7 25 19 25 26 0 7 3 21 6
31 5 15 4 15 -5 3 -7 -10 -11 -11 -11 -2 0 6 -9 12 -21 12 -18 0 -20 4 -14 29
3 17 2 32 -4 36 -8 4 -6 11 3 21 20 19 29 18 18 -3 -11 -21 -5 -43 12 -43 6 0
20 -9 29 -21 14 -16 21 -18 32 -9 14 11 14 34 2 47 -4 4 -11 -4 -15 -17 -5
-21 -7 -18 -13 19 -7 55 2 103 21 109 13 3 13 2 0 -7 -10 -7 -11 -11 -2 -11 6
0 12 -11 12 -24 0 -14 4 -28 10 -31 5 -3 7 0 4 8 -3 8 2 17 10 20 9 4 16 2 16
-4 0 -6 6 -7 13 -3 9 6 9 5 0 -8 -14 -16 -8 -28 13 -28 15 0 10 73 -5 78 -16
5 -13 22 4 22 8 0 15 -5 15 -12 0 -6 3 -8 6 -5 4 4 1 13 -5 21 -7 8 -10 19 -7
24 3 6 -4 12 -16 15 -29 8 -36 0 -13 -17 14 -10 15 -15 5 -21 -15 -9 -53 31
-47 49 5 14 75 25 218 32 99 5 120 4 142 -11 17 -11 34 -14 49 -9 20 6 21 5
10 -9 -21 -25 -5 -39 23 -21 16 10 25 12 30 4 4 -6 15 -8 24 -5 25 8 39 -14
36 -56 -1 -20 1 -43 6 -50 6 -9 9 -1 9 24 0 23 4 36 12 35 7 -2 12 3 13 10 0
6 4 12 10 13 14 1 24 -34 14 -53 -5 -10 -9 -30 -7 -45 2 -36 -11 -75 -23 -68
-5 4 -9 2 -9 -4 0 -16 22 -25 30 -11 5 8 9 7 13 -4 4 -9 12 -16 19 -15 10 0
10 2 1 6 -7 2 -13 11 -13 19 0 8 -6 14 -12 14 -10 0 -9 3 1 9 7 5 10 14 7 20
-4 6 -1 13 6 16 8 3 15 15 15 27 2 25 19 45 21 26 3 -18 9 -70 11 -87 1 -11 6
-10 21 4 13 12 20 29 18 44 -2 14 2 26 7 26 6 0 10 -5 10 -12 0 -6 3 -15 7
-19 4 -3 3 -16 -3 -27 -7 -12 -7 -17 -1 -13 5 3 13 -5 16 -19 5 -18 13 -25 32
-25 13 0 27 -7 30 -15 4 -8 14 -15 24 -15 11 0 22 -4 25 -10 3 -5 17 -10 30
-10 13 0 26 -4 29 -9 3 -4 20 -12 38 -16 18 -4 35 -9 38 -10 3 -1 12 -5 20 -8
37 -15 141 -47 154 -47 47 0 145 -108 170 -187 4 -13 24 -40 44 -61 29 -30 43
-38 63 -35 19 2 28 -2 32 -14 22 -69 71 -253 87 -328 31 -143 23 -435 -18
-685 -7 -38 -9 -41 -16 -23 -4 13 -5 27 -1 32 3 5 1 12 -5 16 -6 4 -10 -6 -11
-22 0 -25 -1 -26 -9 -8 l-9 20 -1 -20 c-2 -14 -5 -11 -10 10 -5 18 -8 22 -9
11 0 -10 -9 -25 -18 -32 -17 -13 -17 -13 1 -14 15 0 16 -3 7 -14 -7 -8 -19
-13 -29 -12 -15 3 -42 -15 -42 -28 0 -2 12 -4 27 -3 16 2 36 -6 47 -17 17 -17
17 -20 2 -28 -9 -5 -16 -15 -16 -23 0 -9 -6 -12 -16 -8 -9 3 -19 0 -24 -7 -4
-6 -15 -10 -24 -8 -14 2 -12 7 9 30 26 28 32 48 15 48 -5 0 -10 -7 -10 -16 0
-10 -6 -14 -15 -10 -8 3 -15 1 -15 -5 0 -6 -4 -8 -8 -5 -10 6 -12 -25 -2 -39
17 -25 -30 -263 -55 -277 -7 -5 -11 -17 -8 -27 3 -11 0 -28 -6 -38 -10 -17
-10 -17 -11 0 0 9 -4 17 -10 17 -5 0 -10 -4 -10 -10 0 -5 -4 -10 -10 -10 -5 0
-10 11 -10 25 0 28 -12 32 -30 10 -7 -8 -16 -12 -21 -10 -4 3 -2 -7 6 -21 19
-38 -4 -78 -50 -86 -17 -2 -20 3 -21 30 0 18 -5 37 -12 44 -8 8 -8 17 -1 30
13 25 3 36 -20 21 -22 -14 -38 9 -34 52 8 108 6 148 -7 140 -5 -3 -10 3 -10
15 0 12 -4 19 -10 15 -5 -3 -6 -13 -3 -22 4 -10 2 -14 -4 -10 -6 4 -13 2 -15
-5 -2 -6 -10 -8 -16 -4 -15 9 -16 36 -2 36 6 0 10 7 10 15 0 8 9 15 19 15 10
0 22 7 25 16 16 41 -1 45 -47 10 -37 -27 -102 -50 -117 -41 -5 3 -10 1 -10 -5
0 -6 -5 -8 -12 -4 -6 4 -8 3 -5 -3 4 -6 30 -10 58 -9 40 2 52 -1 60 -16 7 -13
6 -18 -5 -18 -9 0 -12 -7 -9 -20 3 -11 1 -20 -5 -20 -14 0 -33 25 -25 33 3 4
3 7 0 7 -3 0 -11 -9 -17 -20 -8 -15 -7 -27 4 -47 15 -28 16 -28 22 -5 6 21 23
31 25 15 0 -5 2 -18 5 -30 2 -13 -1 -23 -7 -23 -5 0 -7 -4 -4 -10 3 -5 1 -10
-5 -10 -6 0 -13 7 -16 15 -5 12 -10 13 -20 4 -18 -14 -57 -1 -50 17 10 27 -4
42 -35 37 -28 -4 -36 6 -30 40 1 5 -3 6 -8 3 -5 -4 -12 0 -14 6 -3 7 -6 2 -7
-12 l-2 -25 -7 25 c-8 31 -51 42 -51 13 0 -11 5 -24 12 -31 9 -9 6 -10 -12 -7
-13 3 -28 11 -32 20 -5 8 -13 15 -18 15 -15 0 -12 -28 3 -33 9 -3 9 -7 -1 -19
-9 -11 -10 -23 -2 -42 13 -35 13 -56 -1 -56 -5 0 -9 8 -8 18 2 9 -2 27 -9 39
-7 12 -8 24 -3 27 10 7 9 25 -2 44 -5 6 -5 17 -2 22 3 6 -1 10 -9 10 -9 0 -16
-4 -16 -10 0 -26 -18 -6 -23 25 -4 24 -21 51 -56 86 -27 28 -65 71 -83 96 -53
74 -149 164 -231 219 -50 33 -117 94 -117 107 0 24 -131 191 -203 259 -53 50
-76 78 -64 78 9 0 17 6 17 13 0 8 12 20 26 27 39 21 66 64 58 94 -5 20 -2 28
12 33 12 5 20 19 21 38 0 17 -1 24 -4 18 -7 -19 -33 -16 -35 5 -1 9 -2 24 -3
32 -2 23 -28 60 -42 60 -7 0 -13 6 -13 13 0 16 -97 59 -135 60 -16 0 -35 4
-42 9 -14 11 -36 1 -28 -13 4 -5 1 -9 -4 -9 -6 0 -11 7 -11 15 0 8 -4 15 -9
15 -5 0 -12 14 -16 30 -7 33 -19 37 -40 16 -12 -11 -11 -17 1 -35 11 -15 12
-21 3 -21 -8 0 -6 -6 4 -18 15 -17 15 -18 -8 -18 -14 0 -21 4 -17 11 12 19 9
30 -14 55 l-24 24 5 -24 c2 -13 -1 -30 -8 -38 -9 -12 -9 -16 1 -19 23 -9 12
-23 -19 -23 -26 0 -29 3 -24 21 6 17 3 20 -12 17 -11 -2 -17 -11 -15 -21 2
-15 -3 -17 -40 -13 -24 3 -68 12 -98 21 -117 34 -217 16 -336 -60 -30 -19 -57
-35 -60 -35 -3 0 -26 -18 -50 -39 -29 -25 -59 -42 -85 -46 -67 -11 -75 -56
-16 -90 18 -10 34 -21 37 -25 3 -4 19 -12 35 -18 17 -6 56 -20 87 -31 46 -17
62 -19 82 -10 22 10 43 50 37 73 -8 33 13 65 55 87 25 13 65 40 89 61 46 41
94 50 137 27 18 -10 24 -8 41 15 l19 27 35 -21 c19 -11 47 -20 63 -20 16 0 32
-4 35 -10 3 -5 13 -10 21 -10 8 0 12 5 9 10 -9 14 17 12 38 -4 18 -14 23 -46
7 -46 -5 0 -10 -5 -10 -11 0 -6 12 -1 27 10 31 25 37 22 24 -11 -9 -23 -7 -25
15 -20 13 2 24 11 24 21 1 15 2 15 13 0 7 -9 18 -18 26 -20 11 -4 11 -8 -2
-21 -17 -16 -13 -28 9 -28 8 0 11 6 8 15 -4 8 -1 15 4 15 25 0 21 -22 -9 -60
-32 -40 -57 -48 -51 -16 3 18 -6 20 -27 7 -7 -5 -11 -15 -9 -22 5 -14 -57 -68
-79 -69 -7 0 -16 -7 -21 -16 -11 -20 -118 -25 -153 -7 -13 6 -51 23 -84 36
-147 61 -165 62 -230 19 -22 -14 -62 -34 -90 -44 -27 -10 -54 -24 -60 -31 -5
-7 -45 -58 -87 -113 -106 -140 -169 -192 -254 -213 -310 -74 -487 -168 -561
-301 -14 -25 -45 -76 -68 -115 -24 -38 -46 -81 -50 -95 -9 -30 -55 -79 -74
-80 -7 0 -27 -11 -43 -25 -17 -14 -35 -24 -41 -22 -17 5 -20 27 -4 27 9 0 14
10 13 29 -1 25 -6 31 -32 36 -17 3 -85 37 -150 77 -121 72 -233 128 -256 128
-7 0 -26 14 -41 30 -16 17 -33 30 -39 30 -5 0 -22 8 -36 18 -15 10 -43 25 -62
32 -19 8 -40 20 -45 27 -6 8 -22 19 -35 26 -16 8 -25 21 -25 37 0 18 -7 26
-22 28 -12 2 -23 13 -27 25 -3 12 -30 43 -61 69 -74 62 -146 150 -149 183 -2
15 -7 30 -12 33 -16 11 -42 225 -43 350 -1 46 -4 63 -13 60 -7 -3 -14 -10 -14
-16 -1 -7 -2 -16 -3 -22 0 -5 -5 -10 -9 -10 -25 0 6 384 33 403 6 4 5 10 -5
17 -13 8 -13 11 -1 19 7 5 11 13 8 17 -3 5 6 81 19 169 13 88 24 167 24 175 0
12 2 12 9 2 11 -18 20 19 17 66 -2 25 1 32 16 32 15 0 17 5 12 28 -4 15 -11
30 -16 33 -11 7 2 70 13 63 5 -2 6 -17 3 -33 -4 -20 -1 -30 10 -34 13 -5 16
-1 14 20 -2 15 3 28 11 31 10 3 11 0 5 -9 -6 -11 -3 -10 11 1 17 14 18 13 11
-5 -6 -16 -5 -17 5 -8 8 8 17 9 24 3 8 -6 12 -6 13 3 0 6 2 21 5 32 2 11 2 14
0 8 -10 -28 -25 -12 -19 19 4 22 1 37 -10 49 -14 16 -14 20 -2 33 24 24 101
54 148 58 25 2 50 7 55 10 6 3 28 9 50 13 22 4 48 12 58 17 10 5 28 11 39 13
11 3 28 11 37 18 9 8 34 21 56 28 22 7 42 14 44 16 13 8 11 77 -3 98 -9 14
-12 25 -6 25 5 0 10 9 10 20 0 11 9 29 19 39 27 27 41 55 41 83 0 13 6 34 13
48 38 71 71 127 85 143 35 39 132 96 202 117 41 13 80 27 85 31 12 9 149 44
210 55 22 3 58 10 80 14 74 14 179 10 278 -10z m163 -41 c3 -6 15 -9 25 -6 24
7 24 1 -2 -26 -11 -12 -20 -17 -19 -12 4 21 0 36 -9 31 -5 -3 -14 1 -21 9 -10
12 -10 15 3 15 9 0 19 -5 23 -11z m-4726 -149 c0 -77 -3 -140 -7 -140 -5 0 -8
57 -7 128 1 138 1 152 9 152 3 0 5 -63 5 -140z m4825 130 c3 -5 -1 -10 -10
-10 -9 0 -13 5 -10 10 3 6 8 10 10 10 2 0 7 -4 10 -10z m-40 -60 c12 -23 12
-30 3 -28 -17 4 -28 19 -28 41 0 25 7 21 25 -13z m65 10 c0 -5 -5 -10 -11 -10
-5 0 -7 5 -4 10 3 6 8 10 11 10 2 0 4 -4 4 -10z m2006 -19 c-3 -5 -43 -8 -88
-6 -46 1 -88 -2 -95 -7 -7 -6 -17 -7 -24 -3 -8 6 -7 10 2 16 19 12 212 12 205
0z m64 -1 c0 -5 -7 -10 -15 -10 -8 0 -15 5 -15 10 0 6 7 10 15 10 8 0 15 -4
15 -10z m62 -13 c41 -21 58 -43 45 -56 -14 -14 -18 -41 -6 -41 6 0 8 -4 5 -9
-9 -14 -56 0 -56 16 0 8 9 17 20 20 11 3 20 9 20 14 0 12 -38 49 -50 49 -5 0
-10 5 -10 10 0 13 3 13 32 -3z m-349 -18 c10 -11 17 -23 14 -25 -9 -9 -37 9
-37 23 0 8 -5 11 -11 8 -6 -4 -8 -13 -5 -21 3 -8 1 -14 -4 -14 -6 0 -10 4 -10
9 0 16 -30 21 -55 9 -18 -8 -22 -14 -13 -19 7 -4 15 -4 18 2 4 5 5 -9 4 -31
-1 -23 -4 -44 -8 -47 -6 -6 -10 12 -7 30 2 13 -21 8 -33 -8 -9 -12 -14 -11
-35 10 -13 14 -18 25 -13 25 6 0 14 -4 17 -10 9 -14 28 -12 51 6 10 8 13 13 6
9 -7 -4 -24 1 -39 10 -15 10 -28 13 -32 8 -5 -9 -52 -16 -86 -13 -75 5 -102
19 -39 21 21 0 48 2 59 4 11 2 53 9 94 14 41 6 76 13 79 16 14 14 69 3 85 -16z
m57 -5 c0 -8 -5 -12 -10 -9 -6 4 -8 11 -5 16 9 14 15 11 15 -7z m158 4 c3 10
7 10 18 1 27 -23 16 -37 -28 -33 -49 4 -54 8 -37 27 11 12 17 12 28 3 11 -8
15 -8 19 2z m-5548 -8 c-8 -5 -15 -15 -15 -22 0 -9 -35 -16 -119 -25 -66 -6
-130 -14 -144 -18 -23 -6 -52 9 -52 26 0 5 7 9 15 9 8 0 15 -6 15 -12 0 -9 3
-10 8 -2 14 22 52 34 106 34 34 0 56 -5 59 -12 3 -8 6 -6 6 4 1 13 12 18 49
21 26 2 56 4 67 5 16 1 17 0 5 -8z m3483 -2 c-4 -7 -8 -16 -8 -20 0 -17 -15
-19 -15 -1 0 21 8 33 22 33 5 0 6 -6 1 -12z m2144 -20 c-3 -8 -6 -5 -6 6 -1
11 2 17 5 13 3 -3 4 -12 1 -19z m-5597 2 c0 -5 -7 -10 -16 -10 -8 0 -12 5 -9
10 3 6 10 10 16 10 5 0 9 -4 9 -10z m5760 -10 c0 -5 -7 -10 -16 -10 -8 0 -12
5 -9 10 3 6 10 10 16 10 5 0 9 -4 9 -10z m-681 -27 c-10 -11 -10 -14 -1 -9 7
4 12 2 12 -4 0 -7 7 -10 15 -6 8 3 15 2 15 -3 0 -8 -52 -23 -58 -16 -2 1 -5
14 -8 29 -4 21 -1 26 17 26 19 0 20 -2 8 -17z m181 7 c0 -5 -5 -10 -11 -10 -5
0 -7 5 -4 10 3 6 8 10 11 10 2 0 4 -4 4 -10z m540 0 c0 -5 -7 -10 -15 -10 -8
0 -15 5 -15 10 0 6 7 10 15 10 8 0 15 -4 15 -10z m-790 -10 c0 -5 7 -10 15
-10 8 0 15 -4 15 -10 0 -17 -25 -11 -38 10 -7 12 -8 20 -2 20 5 0 10 -4 10
-10z m-6280 -25 c0 -14 -4 -25 -9 -25 -5 0 -8 11 -8 25 0 14 3 25 8 25 5 0 9
-11 9 -25z m4660 21 c0 -2 -7 -6 -15 -10 -8 -3 -15 -1 -15 4 0 6 7 10 15 10 8
0 15 -2 15 -4z m2430 -51 c0 -59 -15 -59 -16 0 0 25 3 45 8 45 4 0 8 -20 8
-45z m-65 7 c-3 -3 0 -11 6 -19 9 -10 8 -13 -4 -13 -8 0 -17 8 -19 18 -3 11 0
19 8 19 8 0 12 -3 9 -5z m-1795 -32 c0 -5 -4 -10 -10 -10 -5 0 -10 5 -10 10 0
6 5 10 10 10 6 0 10 -4 10 -10z m-4927 -17 c-7 -2 -19 -2 -25 0 -7 3 -2 5 12
5 14 0 19 -2 13 -5z m6654 -42 c-15 -6 -28 15 -21 33 6 15 8 14 18 -6 7 -13 8
-25 3 -27z m-2737 -6 c-7 -8 -16 -15 -21 -15 -5 0 -9 7 -9 15 0 9 9 15 21 15
18 0 19 -2 9 -15z m-3917 -2 c-7 -2 -19 -2 -25 0 -7 3 -2 5 12 5 14 0 19 -2
13 -5z m92 -3 c-3 -5 -12 -10 -18 -10 -7 0 -6 4 3 10 19 12 23 12 15 0z m40
-10 c3 -5 -1 -10 -9 -10 -9 0 -16 5 -16 10 0 6 4 10 9 10 6 0 13 -4 16 -10z
m4825 -16 c0 -8 -4 -12 -10 -9 -5 3 -10 10 -10 16 0 5 5 9 10 9 6 0 10 -7 10
-16z m1750 2 c0 -8 6 -16 13 -19 6 -2 9 -8 5 -12 -3 -4 -12 -3 -20 2 -15 9
-20 43 -7 43 5 0 9 -6 9 -14z m-7213 -22 c74 -4 113 -10 116 -18 3 -7 1 -43
-4 -81 -4 -39 -13 -146 -19 -240 -6 -93 -16 -187 -21 -207 l-10 -38 -73 0
c-52 0 -77 4 -86 15 -9 11 -9 50 -1 174 8 106 8 168 1 185 -11 29 -56 61 -112
78 -36 10 -38 14 -39 52 -3 89 7 100 80 92 31 -4 106 -9 168 -12z m623 -17
c31 -15 36 -50 15 -101 -18 -43 -20 -43 -150 -16 -52 11 -65 10 -98 -4 -31
-12 -38 -20 -35 -38 3 -20 10 -23 63 -25 78 -4 218 -71 234 -112 16 -42 24
-117 17 -166 -6 -40 -13 -48 -60 -80 l-53 -35 -104 6 c-100 6 -163 6 -239 1
l-35 -2 -3 75 c-6 120 17 369 38 416 26 60 76 87 175 95 96 8 201 2 235 -14z
m4840 -17 c0 -5 -4 -10 -10 -10 -5 0 -10 5 -10 10 0 6 5 10 10 10 6 0 10 -4
10 -10z m-1799 -143 c-8 -8 -11 -3 -11 19 1 25 2 27 11 11 8 -14 8 -22 0 -30z
m1629 -167 c0 -5 -4 -10 -10 -10 -5 0 -10 5 -10 10 0 6 5 10 10 10 6 0 10 -4
10 -10z m-73 -55 c-10 -7 -29 -27 -41 -44 -15 -20 -26 -27 -35 -21 -8 4 -10
13 -7 19 4 6 12 9 17 6 5 -4 9 1 9 9 0 9 6 16 14 16 8 0 16 7 20 15 3 8 13 15
23 15 17 -1 17 -1 0 -15z m-2051 -45 c8 0 14 -4 14 -10 0 -5 -7 -10 -15 -10
-8 0 -15 2 -15 4 0 2 -2 10 -3 18 -2 7 -2 10 0 6 3 -5 11 -8 19 -8z m-29 -47
c-16 -16 -17 -16 -17 3 0 11 3 24 7 27 4 4 11 3 17 -3 7 -7 5 -16 -7 -27z m63
5 c0 -19 -2 -20 -10 -8 -8 12 -10 10 -11 -10 -1 -18 -3 -20 -6 -7 -3 10 1 24
7 32 17 20 20 19 20 -7z m3960 -58 c0 -5 -8 -10 -17 -10 -15 0 -16 2 -3 10 19
12 20 12 20 0z m130 -16 c0 -8 -4 -14 -10 -14 -5 0 -10 9 -10 21 0 11 5 17 10
14 6 -3 10 -13 10 -21z m-1090 -48 c0 -3 -4 -8 -10 -11 -5 -3 -10 -1 -10 4 0
6 5 11 10 11 6 0 10 -2 10 -4z m-6056 -17 c29 -14 34 -48 25 -175 -4 -49 -8
-134 -8 -188 -1 -153 18 -105 24 59 2 77 8 168 11 203 6 56 9 65 32 73 16 6
49 7 86 1 34 -4 111 -5 171 -1 307 22 320 22 332 8 6 -8 27 -86 47 -174 40
-175 68 -284 85 -329 7 -16 8 -33 4 -37 -4 -4 -39 -4 -78 1 -38 5 -217 9 -397
10 -285 0 -328 2 -328 15 0 13 42 15 313 16 171 0 335 4 362 9 l50 7 -65 2
c-36 1 -111 6 -168 11 -56 5 -194 10 -307 11 -183 1 -206 -1 -222 -17 -13 -12
-14 -19 -5 -22 6 -2 12 -10 12 -17 0 -15 -51 -27 -64 -15 -11 11 -8 334 4 440
13 117 27 135 84 109z m6829 -22 c-3 -5 -10 -4 -15 1 -6 6 -7 16 -3 22 6 9 9
9 16 -1 4 -7 5 -17 2 -22z m-716 -3 c10 -22 10 -24 -3 -14 -8 7 -14 9 -14 4 0
-5 -4 -2 -9 6 -10 14 -6 30 7 30 4 0 12 -12 19 -26z m43 -1 c0 -10 -4 -14 -8
-8 -4 6 -11 13 -16 18 -5 4 -2 7 7 7 10 0 17 -8 17 -17z m-130 -3 c0 -5 -5
-10 -11 -10 -5 0 -7 5 -4 10 3 6 8 10 11 10 2 0 4 -4 4 -10z m714 -8 c3 -5 -1
-9 -9 -9 -8 0 -12 4 -9 9 3 4 7 8 9 8 2 0 6 -4 9 -8z m-634 -33 c0 -5 -4 -9
-10 -9 -5 0 -10 7 -10 16 0 8 5 12 10 9 6 -3 10 -10 10 -16z m-3633 -24 c-12
-6 -23 -7 -25 -3 -5 12 -32 10 -32 -3 0 -7 -12 -10 -29 -7 -26 4 -29 2 -20
-14 9 -17 8 -19 -7 -17 -15 2 -24 -30 -24 -88 0 -35 -4 -63 -10 -63 -14 0 -13
109 1 151 17 50 34 59 105 57 54 -1 60 -3 41 -13z m63 -5 c0 -5 -7 -10 -15
-10 -8 0 -15 5 -15 10 0 6 7 10 15 10 8 0 15 -4 15 -10z m42 -17 c-7 -11 -6
-23 2 -35 9 -15 8 -21 -4 -28 -8 -5 -18 -10 -21 -10 -10 0 -8 59 2 66 5 3 7
10 4 15 -4 5 1 9 10 9 12 0 14 -4 7 -17z m3468 -19 c0 -8 -4 -12 -10 -9 -5 3
-10 10 -10 16 0 5 5 9 10 9 6 0 10 -7 10 -16z m-3603 0 c-3 -3 -12 -4 -19 -1
-8 3 -5 6 6 6 11 1 17 -2 13 -5z m69 -3 c-4 -5 -1 -11 5 -13 8 -3 7 -13 -4
-35 -9 -17 -14 -33 -12 -37 3 -3 1 -3 -4 1 -11 10 -22 79 -14 87 10 10 35 7
29 -3z m-66 -40 c0 -10 -6 -21 -13 -24 -10 -4 -13 2 -9 19 5 28 22 32 22 5z
m144 -40 c9 -14 -14 -111 -26 -111 -6 0 -8 10 -4 23 3 12 6 39 6 60 0 35 12
48 24 28z m-147 -33 c-3 -8 -6 -5 -6 6 -1 11 2 17 5 13 3 -3 4 -12 1 -19z
m3589 -15 c-10 -10 -19 5 -10 18 6 11 8 11 12 0 2 -7 1 -15 -2 -18z m-3510
-14 c3 -6 2 -14 -3 -18 -11 -7 -11 -101 0 -101 4 0 5 -10 2 -23 -8 -31 -13
-59 -14 -75 -1 -7 -5 -11 -11 -7 -6 3 -6 15 0 29 5 13 6 27 2 30 -10 10 -11
86 -1 86 5 0 5 10 -1 24 -15 40 6 86 26 55z m-186 -46 c0 -30 -9 -27 -15 6 -2
11 0 21 6 21 5 0 9 -12 9 -27z m219 -52 c-1 -17 -3 -20 -6 -8 -2 9 -9 17 -14
17 -5 0 -9 4 -9 8 0 5 7 9 15 9 10 0 15 -9 14 -26z m-217 -30 c-2 -23 -8 -38
-14 -35 -5 3 -7 22 -4 43 3 20 5 37 6 39 0 2 4 1 8 -2 4 -2 6 -23 4 -45z m218
-29 c0 -12 -3 -12 -15 -2 -8 7 -15 13 -15 15 0 1 7 2 15 2 8 0 15 -7 15 -15z
m-223 -69 c-3 -10 -5 -2 -5 17 0 19 2 27 5 18 2 -10 2 -26 0 -35z m223 -1 c0
-8 -1 -13 -3 -11 -1 2 -9 12 -16 22 -12 15 -12 17 3 11 9 -3 16 -13 16 -22z
m-12 -29 c16 -16 15 -33 -3 -33 -8 0 -12 6 -9 14 4 10 -1 14 -19 12 -18 -2
-24 1 -20 11 6 15 32 14 51 -4z m-18 -59 c0 -8 -4 -13 -9 -10 -5 3 -11 -1 -15
-9 -3 -9 0 -15 9 -15 18 0 20 -31 3 -48 -21 -21 -28 -13 -28 37 0 39 4 51 18
54 9 3 18 5 20 6 1 0 2 -6 2 -15z m27 -26 c-3 -8 -6 -5 -6 6 -1 11 2 17 5 13
3 -3 4 -12 1 -19z m-2510 -19 c26 -10 172 -14 659 -18 l192 -1 21 -57 c12 -32
46 -98 76 -148 30 -49 89 -150 132 -223 44 -75 100 -156 129 -185 28 -29 72
-82 98 -119 54 -77 276 -305 388 -400 43 -36 101 -78 130 -93 107 -58 224
-115 256 -126 19 -6 46 -17 60 -25 15 -8 33 -14 40 -14 7 0 26 -7 42 -15 26
-14 28 -18 23 -62 -7 -64 -20 -88 -39 -72 -8 6 -14 19 -14 29 0 9 -9 25 -20
35 -11 10 -20 29 -20 42 0 28 -15 30 -30 4 -7 -15 -19 -19 -49 -16 -21 1 -45
6 -52 11 -8 5 -22 7 -31 6 -10 -2 -28 2 -40 9 -13 7 -30 13 -38 14 -8 1 -43 9
-78 18 -35 10 -72 17 -83 17 -19 0 -19 -1 -3 -23 10 -13 27 -23 37 -23 11 1
22 -5 25 -13 4 -11 -3 -12 -31 -7 -35 6 -36 6 -35 -21 0 -15 -3 -38 -7 -50 -6
-19 -3 -22 39 -28 26 -4 49 -11 51 -16 3 -4 12 -6 19 -3 8 3 30 -1 49 -10 21
-8 37 -10 39 -5 2 6 26 7 60 3 32 -4 55 -11 52 -16 -4 -5 4 -8 17 -7 13 2 29
0 36 -4 6 -4 14 -3 18 3 10 16 28 12 21 -5 -3 -9 0 -15 9 -15 8 0 15 4 15 8 0
13 48 32 65 26 20 -8 19 -48 -1 -69 -9 -9 -23 -14 -32 -10 -24 9 -136 25 -291
40 -79 8 -152 17 -162 20 -24 8 -34 76 -30 208 0 27 -2 28 -32 22 -52 -12 -62
-27 -32 -49 8 -6 19 -26 24 -43 13 -45 -8 -44 -49 3 l-32 36 -56 -11 c-31 -7
-97 -11 -147 -9 l-90 3 -3 51 c-4 77 9 101 60 111 63 13 43 28 -37 29 -38 0
-106 8 -150 17 -60 13 -132 17 -284 17 -124 0 -201 -4 -195 -9 11 -11 75 -17
314 -30 102 -5 202 -13 224 -17 l39 -7 -7 -111 c-12 -210 -21 -304 -28 -311
-4 -4 -76 -2 -160 4 -84 6 -184 11 -222 11 l-68 0 7 -37 c4 -21 6 -104 6 -185
-2 -156 11 -199 23 -77 9 83 14 99 31 99 7 0 16 19 21 43 9 40 11 43 59 55 47
12 130 10 205 -5 39 -7 39 -33 0 -123 -16 -38 -30 -75 -30 -83 0 -23 -57 -95
-81 -102 -12 -4 -104 -8 -205 -9 l-182 -1 5 75 c3 41 11 134 17 205 13 149 12
152 -67 117 -36 -16 -45 -26 -50 -52 -6 -28 -10 -31 -32 -26 -49 12 -230 27
-314 25 -76 -2 -85 0 -92 18 -6 15 -23 22 -78 31 -38 7 -94 12 -124 12 -83 0
-89 8 -73 113 7 48 15 90 18 92 2 3 56 7 119 10 63 4 118 10 123 15 13 13 23
85 41 295 17 209 21 198 -86 233 -72 24 -110 27 -139 12 -17 -9 -21 -6 -26 16
-4 15 -4 68 -1 118 3 50 11 165 17 255 6 90 18 200 26 245 8 44 19 108 24 141
8 52 14 65 50 97 l41 37 -33 3 c-25 2 -34 8 -36 26 -4 25 -3 26 35 11z m-567
-61 c0 -4 -7 -8 -15 -8 -8 0 -15 4 -15 8 0 5 7 9 15 9 8 0 15 -4 15 -9z m52 0
c-9 -9 -15 -9 -24 0 -9 9 -7 12 12 12 19 0 21 -3 12 -12z m2951 -64 c-9 -23
-26 -16 -19 9 3 12 6 31 7 42 0 15 3 12 9 -8 5 -16 6 -35 3 -43z m62 29 c-4
-21 -10 -40 -14 -43 -5 -3 -14 -22 -20 -42 -7 -21 -16 -38 -21 -38 -5 0 -16
-7 -24 -16 -9 -8 -16 -11 -16 -5 0 5 6 14 13 18 14 8 47 73 47 92 0 6 5 11 10
11 6 0 10 7 10 15 0 8 -7 15 -15 15 -16 0 -20 12 -8 23 3 4 15 7 26 7 17 0 18
-5 12 -37z m-3235 2 c0 -8 -4 -16 -9 -19 -5 -3 -8 5 -8 19 0 14 3 22 8 19 5
-3 9 -11 9 -19z m-30 -20 c0 -8 -4 -15 -10 -15 -5 0 -10 7 -10 15 0 8 5 15 10
15 6 0 10 -7 10 -15z m80 4 c0 -12 -19 -21 -30 -14 -6 4 -8 10 -6 14 7 10 36
10 36 0z m125 -5 c-17 -13 -18 -16 -5 -24 13 -8 13 -10 -2 -10 -26 0 -32 20
-12 35 11 8 24 14 29 14 6 0 1 -6 -10 -15z m64 -31 c2 -2 -5 -3 -17 -3 -14 0
-22 6 -22 16 0 14 3 15 18 3 9 -7 19 -15 21 -16z m-179 1 c0 -2 -16 -4 -35 -4
-19 0 -35 4 -35 8 0 4 16 6 35 4 19 -2 35 -6 35 -8z m6560 -244 c0 -5 -4 -10
-10 -10 -5 0 -10 5 -10 10 0 6 5 10 10 10 6 0 10 -4 10 -10z m1753 -690 c3
-11 1 -20 -4 -20 -5 0 -9 9 -9 20 0 11 2 20 4 20 2 0 6 -9 9 -20z m-2113 -29
c17 -32 12 -36 -35 -33 -31 3 -54 -1 -71 -13 -14 -9 -28 -14 -32 -11 -3 3 0 6
6 6 7 0 12 5 12 11 0 13 -63 1 -68 -12 -6 -14 -29 -10 -47 7 -19 19 -33 11
-17 -9 7 -8 8 -18 4 -22 -4 -5 -2 -5 5 -1 17 10 25 -11 13 -34 -9 -16 -7 -24
5 -36 15 -15 14 -18 -11 -30 -14 -8 -43 -14 -63 -14 -50 -1 -214 -25 -229 -34
-7 -4 -12 -2 -12 4 0 6 7 13 15 16 20 8 19 30 -1 38 -23 9 -36 7 -29 -3 3 -5
1 -12 -5 -16 -5 -3 -10 -1 -10 4 0 6 -9 11 -20 11 -11 0 -20 -4 -20 -10 0 -5
-6 -7 -14 -4 -8 3 -33 -4 -55 -14 -66 -32 -49 -8 24 34 170 97 297 149 381
158 27 3 63 9 79 15 17 5 65 10 107 10 67 1 79 -2 88 -18z m125 9 c-27 -12
-43 -12 -25 0 8 5 22 9 30 9 10 0 8 -3 -5 -9z m-65 -21 c0 -17 -3 -19 -13 -10
-8 6 -16 9 -19 6 -2 -3 -5 2 -5 10 0 8 9 15 19 15 12 0 18 -7 18 -21z m123 14
c-7 -2 -19 -2 -25 0 -7 3 -2 5 12 5 14 0 19 -2 13 -5z m137 -43 c0 -5 -4 -10
-10 -10 -5 0 -10 5 -10 10 0 6 5 10 10 10 6 0 10 -4 10 -10z m-375 -10 c-3 -5
-14 -10 -23 -9 -14 0 -13 2 3 9 27 11 27 11 20 0z m-99 -31 c3 -6 17 -8 33 -4
20 5 23 4 14 -6 -7 -7 -23 -13 -35 -15 -13 -1 -26 -3 -29 -3 -3 -1 -10 -11
-16 -23 l-10 -22 -5 22 c-4 12 -2 22 2 22 4 0 6 9 3 20 -4 15 0 20 15 20 12 0
24 -5 28 -11z m-10 -84 c-23 -17 -36 -19 -36 -6 0 5 8 12 18 14 32 9 37 6 18
-8z m-5688 -22 c2 -8 -5 -13 -17 -13 -13 0 -25 -9 -30 -22 -6 -17 -9 -18 -14
-6 -3 9 -3 26 0 38 4 16 12 20 31 18 14 -2 27 -9 30 -15z m2 -33 c0 -5 -5 -10
-11 -10 -5 0 -7 5 -4 10 3 6 8 10 11 10 2 0 4 -4 4 -10z m308 -24 c8 -65 1
-71 -82 -68 -83 4 -91 11 -80 69 l6 34 77 -3 c76 -3 76 -3 79 -32z m4943 9
c-18 -8 -38 -12 -45 -8 -6 5 1 10 19 14 51 11 61 9 26 -6z m2212 -15 c-3 -11
-9 -17 -14 -15 -10 7 -1 35 11 35 5 0 6 -9 3 -20z m-2276 -6 c-3 -3 -12 -4
-19 -1 -8 3 -5 6 6 6 11 1 17 -2 13 -5z m2033 -51 c0 -23 -4 -33 -9 -27 -9 8
-4 64 5 64 2 0 4 -17 4 -37z m-1205 3 c110 -9 166 -28 315 -102 145 -72 154
-83 142 -173 -7 -51 -9 -54 -37 -56 -37 -3 -163 14 -190 25 -80 33 -176 45
-375 45 -186 0 -216 -3 -325 -27 -148 -33 -227 -46 -330 -53 -79 -7 -211 7
-226 22 -4 4 -10 40 -14 78 -7 85 1 98 76 126 243 92 648 140 964 115z m-3338
-61 c2 -6 -6 -11 -17 -11 -11 0 -20 6 -20 14 0 15 32 13 37 -3z m4780 -27 c-3
-7 -5 -2 -5 12 0 14 2 19 5 13 2 -7 2 -19 0 -25z m-37 2 c0 -5 -8 -10 -17 -10
-15 0 -16 2 -3 10 19 12 20 12 20 0z m-5550 -10 c0 -5 -8 -14 -19 -19 -13 -7
-20 -27 -25 -63 -4 -29 -12 -75 -18 -101 -9 -44 -12 -48 -36 -45 -25 3 -28 8
-36 60 -7 49 -5 63 11 95 11 21 35 48 53 61 34 23 70 29 70 12z m807 -22 c-3
-7 -5 -2 -5 12 0 14 2 19 5 13 2 -7 2 -19 0 -25z m4619 10 c4 -29 -12 -30 -25
-2 -10 22 -9 25 5 22 10 -2 18 -11 20 -20z m-65 -42 c15 -16 11 -56 -6 -56
-12 0 -15 12 -14 53 1 28 3 43 6 32 3 -11 9 -24 14 -29z m-5259 24 c51 -14 57
-49 24 -124 -14 -31 -31 -56 -39 -56 -9 0 -20 19 -28 46 -9 30 -22 50 -36 57
-17 8 -23 19 -23 43 0 44 29 54 102 34z m5370 -22 c-9 -9 -12 -7 -12 12 0 19
3 21 12 12 9 -9 9 -15 0 -24z m-5092 18 c0 -2 -9 -6 -20 -9 -11 -3 -18 -1 -14
4 5 9 34 13 34 5z m5219 -73 c-11 -13 -14 -12 -21 6 -9 24 0 54 13 45 5 -3 10
3 11 13 0 10 3 3 5 -15 3 -18 -1 -40 -8 -49z m64 48 c3 -13 1 -18 -9 -14 -7 2
-10 11 -7 19 7 19 10 18 16 -5z m-180 -51 c8 -22 11 -40 6 -40 -6 0 -7 -5 -3
-11 4 -7 1 -10 -6 -7 -7 2 -14 11 -16 19 -1 7 -4 29 -7 47 -7 44 7 40 26 -8z
m65 29 c-2 -6 -8 -10 -13 -10 -5 0 -11 4 -13 10 -2 6 4 11 13 11 9 0 15 -5 13
-11z m-128 -54 c0 -28 -17 -34 -27 -9 -3 9 0 20 8 25 19 12 19 12 19 -16z
m249 -11 c-9 -11 -8 -18 1 -29 7 -8 8 -15 2 -15 -13 0 -36 56 -27 70 5 8 11 8
21 -1 11 -9 11 -15 3 -25z m51 -64 c0 -5 -4 -10 -9 -10 -6 0 -13 5 -16 10 -3
6 1 10 9 10 9 0 16 -4 16 -10z m2241 -67 c11 -13 14 -61 13 -222 -1 -243 -13
-318 -50 -327 -29 -7 -42 2 -26 18 7 7 8 17 2 28 -16 30 -16 409 0 468 15 55
35 67 61 35z m-9665 -28 c58 -38 72 -144 27 -212 -30 -47 -56 -55 -141 -43
-72 9 -85 25 -86 102 -2 117 51 184 137 174 21 -2 49 -12 63 -21z m2243 0 c28
-7 27 -15 -14 -150 -15 -49 -33 -130 -41 -179 -12 -85 -26 -118 -40 -103 -4 4
-10 45 -14 92 -4 47 -12 91 -18 97 -6 6 -25 8 -47 4 -42 -8 -58 -37 -70 -123
-8 -63 4 -90 53 -110 30 -13 42 -13 75 -2 34 11 43 11 69 -4 23 -13 34 -14 50
-6 11 6 22 8 26 4 3 -3 6 -36 7 -73 0 -37 4 -72 7 -78 4 -5 10 -44 14 -85 5
-61 3 -83 -11 -112 -9 -21 -21 -38 -26 -38 -5 -1 -14 -2 -19 -3 -6 0 -14 -6
-18 -12 -4 -6 -18 -13 -32 -16 -121 -27 -190 -36 -277 -37 -96 -2 -103 0 -103
18 0 10 -8 22 -17 26 -27 11 -313 27 -353 19 -52 -9 -88 -33 -83 -55 3 -11 0
-19 -7 -19 -23 0 -4 205 26 292 32 90 51 241 60 463 5 116 11 175 20 185 11
13 64 15 386 12 205 -1 384 -4 397 -7z m-1965 -3 c3 -5 52 -12 108 -17 57 -4
115 -8 131 -10 15 -1 58 -3 97 -4 66 -1 70 -2 76 -26 8 -33 -11 -165 -27 -179
-9 -8 -10 -5 -5 16 5 21 2 27 -11 27 -10 0 -30 3 -45 7 -22 5 -28 3 -28 -10 0
-9 5 -16 10 -16 14 0 12 -26 -3 -38 -8 -7 -18 -7 -27 -2 -13 8 -12 10 3 10 9
0 17 4 17 9 0 5 -15 5 -36 1 l-35 -8 3 36 c4 50 -21 54 -52 9 -13 -19 -35 -42
-49 -51 -17 -10 -21 -16 -11 -16 29 -2 -24 -19 -62 -19 -20 -1 -40 -5 -43 -11
-11 -18 49 -25 207 -25 136 0 158 -2 161 -16 6 -24 -12 -51 -31 -45 -9 2 -38
7 -64 11 l-48 6 0 -46 c0 -50 20 -59 30 -14 4 17 13 24 30 24 24 0 25 -3 24
-55 -1 -31 -7 -73 -14 -94 -15 -46 -66 -106 -89 -105 -10 0 -11 2 -3 6 6 2 12
12 12 20 0 14 -11 15 -74 10 -83 -7 -78 -12 -106 93 -6 25 -20 61 -30 80 -20
37 -16 37 -116 24 -39 -5 -54 -3 -66 10 -9 9 -24 16 -32 16 -19 0 -21 -26 -3
-33 6 -3 0 -6 -15 -6 -25 -1 -28 3 -28 32 l0 32 84 -2 c46 -1 93 -6 103 -11
11 -6 25 -7 32 -3 11 7 11 9 0 13 -11 4 -14 40 -13 175 1 94 4 178 7 187 7 17
23 21 31 8z m-571 -82 c0 -22 -2 -43 -5 -45 -2 -3 -38 -4 -79 -4 -41 1 -101 1
-134 1 l-61 0 6 46 5 47 115 -2 c77 -1 114 -5 113 -12 -2 -6 2 -11 8 -11 6 0
9 6 6 14 -3 8 -3 17 1 20 12 13 25 -14 25 -54z m9768 28 c35 -15 58 -56 44
-78 -9 -14 -50 -5 -50 11 0 8 6 13 13 11 8 -1 12 3 10 10 -3 7 -14 14 -26 16
-16 2 -25 -4 -31 -21 -5 -13 -16 -27 -24 -30 -10 -4 -13 -19 -9 -60 3 -38 0
-57 -9 -62 -9 -6 -11 -4 -6 8 9 23 -8 30 -24 10 -10 -12 -10 -14 -1 -9 7 4 12
2 12 -8 0 -8 -4 -17 -9 -20 -18 -12 -32 24 -37 95 -10 154 -11 142 16 149 30
7 82 -1 131 -22z m-1240 -114 c-12 -9 -21 -21 -21 -27 0 -7 5 -4 11 6 27 46
58 0 39 -58 -8 -25 -9 -44 -1 -65 9 -28 8 -30 -16 -30 -15 0 -41 5 -59 12 -30
11 -33 15 -39 70 -4 33 -4 62 -1 65 3 4 6 0 6 -7 0 -8 15 2 34 21 54 54 61 59
64 42 2 -8 -6 -21 -17 -29z m878 20 c11 -4 12 -7 3 -16 -7 -7 -12 -23 -12 -37
0 -35 -11 -71 -21 -71 -4 0 -5 16 -2 35 4 23 2 35 -6 35 -6 0 -11 -7 -11 -15
0 -9 -7 -18 -15 -21 -12 -5 -13 -9 -4 -20 13 -16 6 -29 -11 -19 -10 6 -5 117
6 136 3 6 44 2 73 -7z m66 -3 c10 -17 -9 -20 -30 -5 -18 14 -18 14 2 14 12 0
24 -4 28 -9z m95 -1 c11 -7 5 -10 -22 -10 -21 0 -38 5 -38 10 0 13 40 13 60 0z
m10 -72 c0 -61 -11 -57 -17 7 -3 29 -1 45 6 45 7 0 11 -21 11 -52z m216 43
c17 -2 24 -27 17 -61 -5 -26 -10 -30 -37 -29 -28 0 -29 1 -9 9 18 7 21 14 14
32 -12 33 -35 37 -29 4 6 -30 -7 -36 -15 -6 -9 34 3 57 26 55 12 -1 27 -3 33
-4z m-339 -54 c3 -53 -11 -63 -21 -16 -9 49 -7 71 7 67 7 -3 13 -25 14 -51z
m-8630 -33 c-3 -3 -12 -4 -19 -1 -8 3 -5 6 6 6 11 1 17 -2 13 -5z m8583 -24
c-18 -12 -30 -13 -30 -2 0 4 10 9 22 9 18 2 20 0 8 -7z m278 -85 l2 -30 -16
28 c-18 33 -36 31 -45 -4 -6 -21 -7 -20 -8 9 -1 32 1 33 32 30 28 -3 32 -7 35
-33z m122 9 c0 -8 -4 -12 -10 -9 -5 3 -10 10 -10 16 0 5 5 9 10 9 6 0 10 -7
10 -16z m-230 -8 c0 -8 -7 -16 -15 -20 -17 -6 -18 -4 -9 18 8 20 24 21 24 2z
m193 -29 c18 -4 17 -5 -5 -6 -24 -1 -28 3 -27 27 1 22 2 23 6 5 2 -13 13 -24
26 -26z m-196 -33 c-3 -3 -12 -4 -19 -1 -8 3 -5 6 6 6 11 1 17 -2 13 -5z
m-7973 -70 c33 -12 15 -31 -36 -40 l-53 -9 -10 -200 c-5 -110 -15 -208 -20
-217 -11 -18 -62 -48 -82 -48 -16 0 -17 113 -2 265 6 61 12 139 12 175 l2 65
45 6 c65 9 126 10 144 3z m8453 -66 c-8 -93 -27 -158 -45 -158 -35 0 -40 14
-38 112 l1 98 43 0 43 0 -4 -52z m247 8 c2 -14 -1 -26 -5 -26 -5 0 -9 14 -9
32 0 36 10 32 14 -6z m-714 9 c19 -23 0 -37 -46 -33 -27 2 -40 8 -42 20 -5 27
67 38 88 13z m354 -1 c11 -29 6 -62 -13 -85 l-19 -24 -6 35 c-6 38 -9 71 -7
83 2 14 39 7 45 -9z m-359 -137 c7 -33 7 -52 6 -164 l-1 -103 -44 0 c-66 0
-69 9 -67 167 1 75 4 140 7 144 2 4 25 1 49 -8 31 -10 47 -22 50 -36z m345 -7
c0 -5 -2 -10 -4 -10 -3 0 -8 5 -11 10 -3 6 -1 10 4 10 6 0 11 -4 11 -10z m190
-14 c0 -3 -4 -8 -10 -11 -5 -3 -10 -1 -10 4 0 6 5 11 10 11 6 0 10 -2 10 -4z
m-1080 -261 c63 -2 123 -4 133 -4 15 -1 17 -12 17 -85 0 -47 -4 -87 -9 -91 -5
-3 -70 -1 -143 5 -73 6 -182 13 -243 15 -172 9 -304 30 -320 52 -18 22 -18 35
-4 67 11 23 30 33 94 50 11 3 97 3 190 0 94 -3 222 -7 285 -9z m406 -11 c42
-20 52 -52 34 -113 -7 -25 -15 -67 -18 -93 l-4 -47 52 -26 c36 -18 56 -36 63
-55 9 -25 15 -28 39 -23 28 5 28 5 28 -46 l0 -51 -80 -1 c-44 -1 -94 -2 -111
-3 -37 -1 -44 11 -52 84 -7 71 14 275 31 292 24 24 11 29 -60 22 -103 -9 -118
-17 -118 -56 0 -18 -5 -40 -10 -48 -7 -11 -10 -8 -10 16 0 17 -3 58 -6 92 -6
58 -6 60 17 65 61 11 172 6 205 -9z m-6651 -54 c3 -5 1 -10 -4 -10 -6 0 -11 5
-11 10 0 6 2 10 4 10 3 0 8 -4 11 -10z m-84 -26 c21 -18 33 -18 25 1 -7 18 4
19 28 2 16 -12 16 -14 2 -26 -14 -12 -23 -11 -56 4 -22 10 -46 25 -52 33 -11
13 -9 14 12 7 14 -4 32 -14 41 -21z m-191 -14 c11 -16 3 -120 -10 -133 -4 -5
-24 -8 -44 -7 -69 3 -92 2 -337 -20 -135 -13 -262 -20 -282 -16 -46 9 -56 28
-60 108 l-2 63 179 7 c98 4 181 10 185 13 3 4 86 5 184 3 144 -2 180 -6 187
-18z m7121 -25 c19 -10 37 -23 41 -29 13 -18 9 -36 -7 -36 -8 0 -15 4 -15 8 0
12 -62 32 -98 32 -43 0 -40 -12 8 -39 66 -37 93 -86 74 -135 -5 -14 -13 -10
-43 17 -21 19 -56 42 -79 53 -49 22 -53 45 -21 110 27 58 56 62 140 19z
m-3391 -75 c0 -5 -5 -10 -11 -10 -5 0 -7 5 -4 10 3 6 8 10 11 10 2 0 4 -4 4
-10z m30 -61 c7 -11 9 -23 6 -26 -3 -3 -9 3 -13 13 -3 10 -11 22 -17 26 -8 5
-7 8 1 8 7 0 17 -9 23 -21z m-50 -9 c0 -5 -4 -10 -10 -10 -5 0 -10 5 -10 10 0
6 5 10 10 10 6 0 10 -4 10 -10z m3632 -10 c24 -5 54 -12 68 -15 44 -9 52 -21
71 -106 10 -46 23 -85 30 -88 23 -7 49 -42 49 -65 0 -29 -17 -34 -135 -42
l-84 -6 -10 38 c-5 22 -13 57 -17 79 -4 22 -15 57 -25 77 -11 21 -19 48 -19
62 0 18 -6 25 -22 28 -13 2 -24 11 -26 20 -3 16 6 19 65 27 7 0 32 -3 55 -9z
m-1141 -6 c15 -4 15 -9 2 -47 -8 -23 -17 -66 -20 -95 l-6 -53 -66 3 -66 3 -1
85 c0 47 3 90 7 95 8 11 122 18 150 9z m216 -9 c172 -8 171 -8 165 -45 -2 -16
-1 -56 3 -88 7 -53 8 -55 17 -27 4 17 6 58 4 93 l-4 63 66 -3 67 -3 3 -73 c2
-62 0 -73 -15 -78 -10 -3 -35 -14 -56 -23 -40 -19 -107 -20 -359 -6 -110 7
-144 16 -99 28 15 4 19 17 23 82 5 76 17 101 45 90 7 -2 70 -7 140 -10z
m-2683 -10 c-4 -8 -8 -15 -10 -15 -2 0 -4 7 -4 15 0 8 4 15 10 15 5 0 7 -7 4
-15z m3996 -20 c7 -9 14 -63 17 -138 l6 -123 -27 -18 c-15 -9 -39 -16 -54 -14
-25 3 -29 10 -48 83 -19 69 -37 123 -68 197 -9 21 8 25 95 27 48 1 70 -3 79
-14z m-3943 -57 c-3 -8 -6 -5 -6 6 -1 11 2 17 5 13 3 -3 4 -12 1 -19z m3483
-173 c0 -14 -4 -25 -9 -25 -4 0 -6 11 -3 25 2 14 6 25 8 25 2 0 4 -11 4 -25z
m-40 -5 c0 -5 -4 -10 -10 -10 -5 0 -10 5 -10 10 0 6 5 10 10 10 6 0 10 -4 10
-10z m-165 -56 c3 -28 13 -73 21 -99 7 -27 14 -59 14 -72 0 -21 -4 -24 -32
-21 -33 3 -40 15 -53 97 -4 27 -39 58 -70 63 -22 3 -46 44 -38 64 4 12 51 19
125 19 24 0 27 -4 33 -51z m-494 -1 c8 -8 11 -42 10 -97 -2 -72 0 -86 13 -86
9 0 16 9 16 21 0 11 5 17 10 14 6 -3 10 -2 10 4 0 5 -4 13 -10 16 -5 3 -10 31
-10 61 0 52 2 55 23 52 21 -3 22 -7 21 -93 l-2 -90 -78 -3 c-44 -2 -119 4
-169 12 -49 8 -111 18 -137 21 -27 3 -48 12 -49 18 -4 60 5 153 14 160 19 13
324 4 338 -10z m-379 -58 c-3 -63 -18 -115 -33 -115 -19 0 -8 -20 14 -24 12
-3 50 -10 85 -17 85 -16 91 -27 82 -149 -7 -96 -4 -130 10 -130 4 0 9 40 12
90 2 49 7 93 11 97 8 7 244 -12 285 -23 28 -8 29 -40 5 -142 l-17 -74 -71 7
c-38 3 -100 6 -137 6 -38 1 -70 4 -73 9 -2 4 -25 5 -49 3 -44 -5 -203 13 -223
25 -7 5 -12 94 -15 245 -5 235 -4 239 16 248 12 4 39 7 61 6 l40 -2 -3 -60z
m1613 35 c22 -11 46 -19 53 -20 6 0 12 -7 12 -16 0 -11 6 -15 20 -11 21 5 27
-7 9 -19 -15 -9 -208 -11 -222 -2 -8 5 -6 8 6 8 9 0 18 6 18 13 1 6 2 18 3 25
1 12 41 41 56 41 3 0 23 -8 45 -19z m-1090 -99 c4 -24 10 -39 14 -32 4 6 7 -5
7 -24 0 -33 -17 -52 -37 -39 -5 3 -9 42 -9 87 1 85 12 89 25 8z m119 9 c23 -8
26 -15 26 -54 0 -80 -16 -93 -65 -54 -24 19 -26 26 -21 61 10 61 14 65 60 47z
m936 -94 c0 -2 -9 -15 -21 -28 -11 -12 -38 -62 -59 -110 -73 -164 -102 -223
-125 -248 -13 -14 -46 -59 -73 -100 -28 -41 -71 -96 -95 -122 -49 -52 -94
-140 -138 -266 -16 -46 -37 -95 -46 -109 -15 -23 -35 -168 -26 -185 2 -4 15
-1 28 8 13 8 36 14 52 12 27 -3 28 -5 30 -64 2 -85 -1 -88 -75 -73 l-61 13 -6
45 c-3 25 -11 67 -17 94 -7 34 -7 51 1 61 7 8 13 92 16 222 2 115 7 240 11
277 7 72 25 104 53 91 9 -4 62 -10 117 -12 l101 -4 5 26 c3 16 -4 39 -23 68
-16 25 -39 87 -54 147 -14 58 -31 113 -36 123 -15 27 -29 12 -19 -20 5 -15 11
-65 15 -111 6 -92 -1 -111 -44 -111 -24 0 -28 5 -39 53 -14 62 -16 205 -3 240
7 19 21 26 67 35 31 7 90 12 131 12 61 0 271 25 279 33 5 4 54 7 54 3z m-592
-253 c2 -164 0 -193 -14 -207 -19 -20 -123 -22 -236 -4 l-78 11 1 156 c1 86 4
167 8 180 11 41 85 61 211 58 l105 -2 3 -192z m-470 -63 c0 -37 -12 -59 -25
-47 -8 8 8 87 17 87 5 0 8 -18 8 -40z m-5618 -140 c0 -5 -5 -10 -11 -10 -5 0
-7 5 -4 10 3 6 8 10 11 10 2 0 4 -4 4 -10z m30 -20 c0 -5 -5 -10 -11 -10 -5 0
-7 5 -4 10 3 6 8 10 11 10 2 0 4 -4 4 -10z m50 -24 c0 -2 -7 -6 -15 -10 -8 -3
-15 -1 -15 4 0 6 7 10 15 10 8 0 15 -2 15 -4z m-113 -38 c-3 -8 -6 -5 -6 6 -1
11 2 17 5 13 3 -3 4 -12 1 -19z m1088 -138 c3 -6 -1 -7 -9 -4 -18 7 -21 14 -7
14 6 0 13 -4 16 -10z m1519 -17 c4 -9 2 -20 -5 -24 -8 -4 -8 -12 -1 -24 9 -17
10 -17 16 3 4 12 12 22 17 22 5 0 9 7 9 15 0 8 7 15 15 15 8 0 15 -4 15 -10 0
-9 -37 -80 -96 -185 -13 -22 -35 -64 -49 -94 -19 -38 -29 -50 -35 -41 -5 8 -4
22 1 31 11 22 11 29 0 29 -10 0 -141 -127 -141 -136 0 -13 -103 -127 -220
-244 -103 -103 -132 -138 -164 -202 l-39 -77 -19 25 c-19 23 -19 27 -4 64 8
22 24 49 33 61 33 41 145 149 153 149 5 0 17 14 27 30 9 17 22 30 28 30 7 0
26 21 43 48 17 26 43 60 57 76 14 16 25 32 25 35 0 3 23 31 51 61 51 55 129
154 129 164 0 15 92 147 110 158 11 7 20 18 20 25 0 19 17 16 24 -4z m3128
-10 c10 -9 18 -22 18 -29 0 -14 9 -17 108 -33 52 -8 67 -16 90 -42 62 -74 53
-87 -47 -71 -38 7 -95 12 -126 12 l-56 0 2 78 c2 67 0 77 -15 74 -9 -2 -16 4
-16 13 0 20 19 19 42 -2z m-4698 -17 c-6 -15 -24 -23 -24 -11 0 8 24 34 28 30
1 -1 0 -10 -4 -19z m-40 -51 c-4 -8 -8 -15 -10 -15 -2 0 -4 7 -4 15 0 8 4 15
10 15 5 0 7 -7 4 -15z m-30 -53 c-16 -4 -19 -22 -4 -22 6 0 10 -4 10 -10 0 -5
-9 -10 -20 -10 -11 0 -20 -7 -20 -15 0 -9 -6 -12 -15 -9 -21 8 -19 17 9 46 12
14 26 34 31 44 7 18 7 18 15 -1 5 -14 3 -21 -6 -23z m76 18 c0 -5 -5 -10 -11
-10 -5 0 -7 5 -4 10 3 6 8 10 11 10 2 0 4 -4 4 -10z m5004 -122 c30 -43 21
-58 -34 -58 -39 0 -50 4 -50 16 0 9 -6 14 -12 11 -7 -2 -12 -10 -10 -16 1 -6
-7 -11 -18 -11 -17 0 -18 3 -9 18 16 26 71 61 96 61 12 1 29 -9 37 -21z m-294
-18 c0 -5 7 -7 15 -4 8 4 15 1 15 -5 0 -7 8 -7 26 -1 18 7 23 7 18 -1 -3 -6 0
-15 7 -20 9 -6 1 -7 -21 -3 -19 3 -45 5 -57 5 -16 -1 -23 5 -23 19 0 11 5 20
10 20 6 0 10 -4 10 -10z m160 0 c0 -5 -7 -10 -15 -10 -8 0 -15 5 -15 10 0 6 7
10 15 10 8 0 15 -4 15 -10z m-5102 -11 c-10 -5 -18 -17 -18 -24 0 -8 -4 -15
-10 -15 -5 0 -10 3 -10 7 0 11 33 43 44 43 6 0 3 -5 -6 -11z m29 -31 c-3 -13
-16 -52 -29 -88 -17 -49 -23 -59 -26 -41 -2 13 2 27 9 31 6 5 9 15 6 24 -4 9
-3 16 1 16 11 0 34 58 27 70 -3 5 -1 10 6 10 7 0 9 -9 6 -22z m5037 1 c-3 -5
-10 -7 -15 -3 -5 3 -7 10 -3 15 3 5 10 7 15 3 5 -3 7 -10 3 -15z m-1614 -39
c0 -11 -7 -20 -15 -20 -8 0 -15 9 -15 20 0 11 7 20 15 20 8 0 15 -9 15 -20z
m-3490 -11 c0 -11 -4 -17 -10 -14 -5 3 -10 13 -10 21 0 8 5 14 10 14 6 0 10
-9 10 -21z m-17 -44 c-7 -21 -13 -19 -13 6 0 11 4 18 10 14 5 -3 7 -12 3 -20z
m-16 -67 c-3 -8 -6 -5 -6 6 -1 11 2 17 5 13 3 -3 4 -12 1 -19z m53 -18 c0 -5
-4 -10 -10 -10 -5 0 -10 5 -10 10 0 6 5 10 10 10 6 0 10 -4 10 -10z m2540 -18
c0 -5 -15 -16 -32 -25 -18 -10 -52 -29 -76 -43 -24 -14 -49 -23 -55 -21 -14 4
63 55 107 69 17 6 35 15 41 19 11 11 15 11 15 1z m515 -102 c3 -6 -1 -7 -9 -4
-18 7 -21 14 -7 14 6 0 13 -4 16 -10z m-700 -10 c-3 -5 -10 -10 -16 -10 -5 0
-9 5 -9 10 0 6 7 10 16 10 8 0 12 -4 9 -10z m668 -87 c-9 -25 -61 -75 -73 -71
-10 3 57 88 71 88 4 0 5 -8 2 -17z m-1573 -41 c0 -3 -9 3 -20 13 -11 10 -20
23 -20 28 0 6 9 0 20 -13 11 -13 20 -25 20 -28z m-25 -18 l26 -26 -17 -56
c-22 -77 -36 -101 -86 -153 -76 -78 -118 -106 -118 -79 0 6 7 10 15 10 8 0 15
8 15 18 0 10 8 27 18 38 19 20 52 105 52 133 0 9 7 29 15 45 8 15 15 34 15 41
0 7 7 15 15 19 8 3 15 12 15 21 0 21 5 19 35 -11z m-345 -209 c0 -8 -4 -15
-10 -15 -5 0 -10 7 -10 15 0 8 5 15 10 15 6 0 10 -7 10 -15z m42 3 c-7 -7 -12
-21 -12 -32 0 -15 -3 -17 -11 -9 -15 15 -2 53 19 53 12 0 13 -3 4 -12z m-966
-82 c11 -23 10 -24 -7 -13 -11 7 -19 17 -19 24 0 21 14 15 26 -11z m941 -8
c-3 -8 -6 -5 -6 6 -1 11 2 17 5 13 3 -3 4 -12 1 -19z m84 -48 c-24 -21 -51
-26 -51 -11 0 5 12 14 28 19 42 16 49 13 23 -8z m69 -266 c0 -8 -4 -12 -10 -9
-5 3 -10 10 -10 16 0 5 5 9 10 9 6 0 10 -7 10 -16z m-233 -31 c-3 -10 -5 -4
-5 12 0 17 2 24 5 18 2 -7 2 -21 0 -30z m193 19 c0 -4 -9 -13 -20 -20 -22 -13
-27 -3 -8 16 14 14 28 16 28 4z m-1156 -106 c-7 -30 -24 -35 -24 -8 0 18 20
45 27 38 2 -2 1 -15 -3 -30z m1376 4 c0 -5 -7 -10 -16 -10 -8 0 -12 5 -9 10 3
6 10 10 16 10 5 0 9 -4 9 -10z m-1491 -202 c8 -25 -1 -49 -12 -31 -12 22 -28
114 -21 125 6 9 11 -1 16 -27 5 -22 12 -52 17 -67z m78 -14 c-3 -3 -12 -4 -19
-1 -8 3 -5 6 6 6 11 1 17 -2 13 -5z m-31 -30 c-3 -9 -6 -18 -6 -20 0 -2 -7 -4
-15 -4 -8 0 -15 7 -15 16 0 8 5 12 10 9 6 -3 10 -1 10 4 0 6 5 11 11 11 6 0 8
-7 5 -16z"/>
<path d="M6118 9823 c7 -3 16 -2 19 1 4 3 -2 6 -13 5 -11 0 -14 -3 -6 -6z"/>
<path d="M5060 9520 c0 -5 5 -10 10 -10 6 0 10 5 10 10 0 6 -4 10 -10 10 -5 0
-10 -4 -10 -10z"/>
<path d="M4930 9460 c0 -5 7 -10 15 -10 8 0 15 5 15 10 0 6 -7 10 -15 10 -8 0
-15 -4 -15 -10z"/>
<path d="M5070 9451 c0 -6 4 -13 10 -16 6 -3 7 1 4 9 -7 18 -14 21 -14 7z"/>
<path d="M4880 9400 c0 -5 5 -10 10 -10 6 0 10 5 10 10 0 6 -4 10 -10 10 -5 0
-10 -4 -10 -10z"/>
<path d="M4950 9392 c0 -5 7 -15 15 -22 8 -7 15 -8 15 -2 0 5 -7 15 -15 22 -8
7 -15 8 -15 2z"/>
<path d="M4770 9261 c0 -6 5 -13 10 -16 6 -3 10 1 10 9 0 9 -4 16 -10 16 -5 0
-10 -4 -10 -9z"/>
<path d="M4717 9220 c-12 -12 -15 -20 -8 -25 6 -3 14 1 17 9 3 9 13 16 21 16
8 0 11 5 8 10 -9 14 -17 12 -38 -10z"/>
<path d="M6370 9700 c0 -5 7 -10 16 -10 8 0 12 5 9 10 -3 6 -10 10 -16 10 -5
0 -9 -4 -9 -10z"/>
<path d="M5106 9275 c4 -8 8 -15 10 -15 2 0 4 7 4 15 0 8 -4 15 -10 15 -5 0
-7 -7 -4 -15z"/>
<path d="M4266 9283 c-7 -7 13 -33 25 -33 5 0 9 6 9 14 0 15 -24 28 -34 19z"/>
<path d="M4240 9250 c0 -5 5 -10 11 -10 5 0 7 5 4 10 -3 6 -8 10 -11 10 -2 0
-4 -4 -4 -10z"/>
<path d="M4210 9211 c0 -5 7 -11 15 -15 9 -3 15 0 15 9 0 8 -7 15 -15 15 -8 0
-15 -4 -15 -9z"/>
<path d="M4165 9190 c-3 -5 1 -10 9 -10 9 0 16 5 16 10 0 6 -4 10 -9 10 -6 0
-13 -4 -16 -10z"/>
<path d="M4150 9155 c0 -8 7 -15 15 -15 8 0 15 4 15 9 0 5 -7 11 -15 15 -9 3
-15 0 -15 -9z"/>
<path d="M4110 9131 c0 -5 7 -12 16 -15 24 -9 28 -7 14 9 -14 17 -30 20 -30 6z"/>
<path d="M4084 9108 c5 -21 3 -28 -8 -28 -8 0 -16 5 -18 12 -3 8 -6 9 -11 1
-4 -6 2 -18 12 -27 16 -15 19 -14 39 7 l22 24 -21 19 -22 19 7 -27z"/>
<path d="M4028 9054 c-4 -3 -4 -12 -1 -20 3 -8 0 -14 -6 -14 -6 0 -11 4 -11 8
0 5 -7 9 -15 9 -18 0 -18 -2 -5 -28 14 -25 32 -24 48 1 12 20 3 58 -10 44z"/>
<path d="M3957 8994 c-4 -4 3 -16 16 -26 20 -18 22 -18 25 -3 5 23 -26 44 -41
29z"/>
<path d="M3926 8971 c-6 -9 26 -51 38 -51 3 0 6 8 6 18 0 19 -36 46 -44 33z"/>
<path d="M3895 8940 c-3 -6 0 -17 8 -25 9 -8 18 -20 20 -27 4 -10 8 -9 16 2 8
11 7 18 -4 26 -8 6 -15 16 -15 23 0 14 -17 15 -25 1z"/>
<path d="M5360 7940 c0 -5 7 -10 16 -10 14 0 14 -3 4 -15 -10 -12 -10 -15 4
-15 21 0 21 36 0 44 -21 8 -24 8 -24 -4z"/>
<path d="M5413 7905 c0 -7 6 -11 14 -8 7 3 13 6 13 8 0 2 -6 5 -13 8 -8 3 -14
-1 -14 -8z"/>
<path d="M5425 7830 c3 -5 10 -10 16 -10 5 0 9 5 9 10 0 6 -7 10 -16 10 -8 0
-12 -4 -9 -10z"/>
<path d="M6385 7770 c-3 -5 -1 -10 4 -10 6 0 11 5 11 10 0 6 -2 10 -4 10 -3 0
-8 -4 -11 -10z"/>
<path d="M6337 7746 c-6 -16 2 -28 14 -20 12 7 11 34 0 34 -5 0 -11 -6 -14
-14z"/>
<path d="M6271 7734 c0 -11 3 -14 6 -6 3 7 2 16 -1 19 -3 4 -6 -2 -5 -13z"/>
<path d="M6400 7706 c0 -25 3 -46 8 -46 11 0 14 78 2 85 -6 4 -10 -11 -10 -39z"/>
<path d="M6146 7695 c4 -8 8 -15 10 -15 2 0 4 7 4 15 0 8 -4 15 -10 15 -5 0
-7 -7 -4 -15z"/>
<path d="M6271 7694 c0 -11 3 -14 6 -6 3 7 2 16 -1 19 -3 4 -6 -2 -5 -13z"/>
<path d="M6405 7640 c3 -5 8 -10 11 -10 2 0 4 5 4 10 0 6 -5 10 -11 10 -5 0
-7 -4 -4 -10z"/>
<path d="M6216 7633 c-10 -10 -7 -33 5 -33 5 0 8 4 5 9 -4 5 -1 11 6 13 8 3 9
6 1 11 -5 4 -13 4 -17 0z"/>
<path d="M4467 7368 c-10 -11 -15 -23 -11 -26 3 -4 9 -1 11 6 3 6 16 12 29 12
27 0 32 15 8 24 -19 7 -15 9 -37 -16z"/>
<path d="M4420 7330 c0 -5 5 -10 10 -10 6 0 10 5 10 10 0 6 -4 10 -10 10 -5 0
-10 -4 -10 -10z"/>
<path d="M4351 7294 c0 -11 3 -14 6 -6 3 7 2 16 -1 19 -3 4 -6 -2 -5 -13z"/>
<path d="M5585 7220 c-16 -7 -11 -9 20 -9 29 -1 36 2 25 9 -17 11 -19 11 -45
0z"/>
<path d="M5613 7181 c-10 -16 -9 -19 5 -17 9 2 18 10 20 19 5 23 -10 21 -25
-2z"/>
<path d="M5550 7180 c0 -5 5 -10 10 -10 6 0 10 5 10 10 0 6 -4 10 -10 10 -5 0
-10 -4 -10 -10z"/>
<path d="M3920 7169 c0 -5 5 -7 10 -4 6 3 10 8 10 11 0 2 -4 4 -10 4 -5 0 -10
-5 -10 -11z"/>
<path d="M3980 7170 c0 -5 5 -10 10 -10 6 0 10 5 10 10 0 6 -4 10 -10 10 -5 0
-10 -4 -10 -10z"/>
<path d="M4235 7155 c7 -33 12 -41 20 -33 3 3 -2 18 -11 34 l-16 29 7 -30z"/>
<path d="M5295 7170 c3 -5 11 -10 16 -10 6 0 7 5 4 10 -3 6 -11 10 -16 10 -6
0 -7 -4 -4 -10z"/>
<path d="M5360 7170 c0 -5 5 -10 10 -10 6 0 10 5 10 10 0 6 -4 10 -10 10 -5 0
-10 -4 -10 -10z"/>
<path d="M5480 7171 c0 -5 5 -13 10 -16 6 -3 10 -2 10 4 0 5 -4 13 -10 16 -5
3 -10 2 -10 -4z"/>
<path d="M4040 7160 c0 -5 5 -10 10 -10 6 0 10 5 10 10 0 6 -4 10 -10 10 -5 0
-10 -4 -10 -10z"/>
<path d="M4100 7126 c0 -8 5 -18 10 -21 6 -3 10 3 10 14 0 12 -4 21 -10 21 -5
0 -10 -6 -10 -14z"/>
<path d="M3908 7123 c6 -2 18 -2 25 0 6 3 1 5 -13 5 -14 0 -19 -2 -12 -5z"/>
<path d="M5613 7115 c0 -8 4 -15 8 -15 4 0 9 7 13 15 3 9 0 15 -8 15 -7 0 -13
-7 -13 -15z"/>
<path d="M3860 7111 c0 -6 4 -13 10 -16 6 -3 7 1 4 9 -7 18 -14 21 -14 7z"/>
<path d="M5525 7110 c-3 -6 1 -13 9 -16 9 -3 16 -14 17 -23 1 -9 4 -5 8 9 5
14 6 28 4 33 -6 10 -31 9 -38 -3z"/>
<path d="M5631 7082 c-1 -7 -5 -10 -11 -7 -5 3 -10 0 -10 -9 0 -21 11 -46 20
-46 14 0 20 29 10 52 -5 13 -9 17 -9 10z"/>
<path d="M3890 7050 c0 -5 5 -10 11 -10 5 0 7 5 4 10 -3 6 -8 10 -11 10 -2 0
-4 -4 -4 -10z"/>
<path d="M4226 7023 c-4 -9 -3 -19 3 -22 5 -3 11 -15 14 -26 4 -18 5 -18 6 3
1 12 7 22 16 22 8 0 15 9 15 20 0 25 -45 28 -54 3z"/>
<path d="M4290 7020 c0 -11 7 -20 15 -20 8 0 15 5 15 11 0 6 6 9 13 7 14 -5
20 -85 6 -94 -5 -3 -9 -15 -8 -27 1 -20 2 -20 9 3 l8 25 2 -25 c2 -21 4 -19
14 13 6 21 15 35 19 31 4 -4 7 -2 7 4 0 7 -7 12 -16 12 -12 0 -15 7 -12 30 3
20 0 30 -9 30 -7 0 -13 4 -13 8 0 4 -11 9 -25 10 -19 1 -25 -3 -25 -18z"/>
<path d="M4163 7011 c-9 -11 -20 -18 -25 -15 -4 3 -8 1 -8 -4 0 -6 7 -12 15
-16 9 -3 15 0 15 9 0 8 9 15 20 15 11 0 20 7 20 15 0 21 -17 19 -37 -4z"/>
<path d="M5550 6986 c0 -9 7 -16 16 -16 9 0 14 5 12 12 -6 18 -28 21 -28 4z"/>
<path d="M4229 6938 c-6 -21 -5 -38 2 -38 5 0 9 9 9 20 0 16 -7 28 -11 18z"/>
<path d="M4252 6920 c0 -14 2 -19 5 -12 2 6 2 18 0 25 -3 6 -5 1 -5 -13z"/>
<path d="M4300 6920 c0 -11 5 -20 10 -20 6 0 10 9 10 20 0 11 -4 20 -10 20 -5
0 -10 -9 -10 -20z"/>
<path d="M7038 6923 c-6 -22 1 -43 13 -43 5 0 9 14 9 30 0 33 -15 41 -22 13z"/>
<path d="M7105 6930 c3 -5 8 -10 11 -10 2 0 4 5 4 10 0 6 -5 10 -11 10 -5 0
-7 -4 -4 -10z"/>
<path d="M7220 6920 c0 -11 5 -20 10 -20 6 0 10 9 10 20 0 11 -4 20 -10 20 -5
0 -10 -9 -10 -20z"/>
<path d="M7280 6930 c0 -5 5 -10 10 -10 6 0 10 5 10 10 0 6 -4 10 -10 10 -5 0
-10 -4 -10 -10z"/>
<path d="M4166 6921 c-3 -4 3 -16 14 -26 19 -18 20 -17 20 8 0 26 -22 38 -34
18z"/>
<path d="M7280 6869 c0 -5 5 -7 10 -4 6 3 10 8 10 11 0 2 -4 4 -10 4 -5 0 -10
-5 -10 -11z"/>
<path d="M7396 6868 c3 -5 10 -6 15 -3 13 9 11 12 -6 12 -8 0 -12 -4 -9 -9z"/>
<path d="M4320 6849 c0 -23 35 -26 44 -4 3 8 2 15 -2 16 -4 0 -15 2 -24 4 -12
2 -18 -3 -18 -16z"/>
<path d="M7046 6854 c-8 -20 3 -44 18 -38 6 2 12 13 12 24 0 24 -22 34 -30 14z"/>
<path d="M4400 6851 c0 -6 4 -12 8 -15 5 -3 9 1 9 9 0 8 -4 15 -9 15 -4 0 -8
-4 -8 -9z"/>
<path d="M7110 6840 c0 -11 4 -20 9 -20 5 0 7 9 4 20 -3 11 -7 20 -9 20 -2 0
-4 -9 -4 -20z"/>
<path d="M4240 6841 c0 -6 5 -13 10 -16 6 -3 10 1 10 9 0 9 -4 16 -10 16 -5 0
-10 -4 -10 -9z"/>
<path d="M7207 6835 c-8 -8 -17 -11 -21 -8 -3 3 0 -6 7 -20 15 -32 36 -39 68
-21 l24 13 -22 1 c-18 0 -23 6 -23 25 0 28 -12 32 -33 10z"/>
<path d="M7328 6833 c-10 -3 -18 -11 -18 -19 0 -8 -4 -14 -9 -14 -5 0 -11 -9
-14 -19 -5 -22 19 -23 33 -1 6 10 11 8 21 -9 11 -16 24 -21 56 -21 24 0 43 5
43 10 0 6 -18 10 -40 10 -38 0 -40 2 -40 29 0 33 -6 39 -32 34z"/>
<path d="M7463 6795 c0 -9 4 -14 9 -13 5 2 10 8 10 13 0 5 -5 11 -10 13 -5 1
-9 -4 -9 -13z"/>
<path d="M7112 6788 c-14 -14 -16 -28 -3 -28 9 0 24 30 18 36 -2 2 -9 -2 -15
-8z"/>
<path d="M7154 6788 c-4 -6 -3 -8 4 -4 5 3 12 1 14 -6 3 -8 7 -6 11 5 7 20
-17 24 -29 5z"/>
<path d="M4330 6769 c-19 -4 -56 -9 -82 -12 -26 -3 -62 -13 -80 -21 -18 -8
-44 -18 -58 -21 -61 -18 -130 -47 -125 -54 5 -9 113 13 270 54 55 14 120 26
144 26 24 0 53 5 65 9 20 8 20 9 -4 11 -26 2 -41 5 -50 9 -13 6 -48 6 -80 -1z"/>
<path d="M7473 6755 c-3 -9 -3 -18 -1 -21 3 -3 8 4 11 16 6 23 -1 27 -10 5z"/>
<path d="M7045 6730 c-3 -5 -1 -10 4 -10 6 0 11 5 11 10 0 6 -2 10 -4 10 -3 0
-8 -4 -11 -10z"/>
<path d="M7590 6730 c0 -15 38 -32 45 -20 3 5 -1 10 -10 10 -9 0 -13 5 -10 10
3 6 -1 10 -9 10 -9 0 -16 -4 -16 -10z"/>
<path d="M7065 6700 c-8 -13 -1 -24 14 -19 6 3 7 10 2 18 -6 10 -10 10 -16 1z"/>
<path d="M7120 6681 c0 -5 11 -8 24 -7 13 0 22 4 19 9 -6 10 -43 9 -43 -2z"/>
<path d="M6390 6275 c0 -5 5 -17 10 -25 5 -8 10 -10 10 -5 0 6 -5 17 -10 25
-5 8 -10 11 -10 5z"/>
<path d="M3611 6164 c0 -11 3 -14 6 -6 3 7 2 16 -1 19 -3 4 -6 -2 -5 -13z"/>
<path d="M6987 6057 c-3 -8 -2 -19 3 -26 5 -10 9 -8 14 4 3 9 6 21 6 26 0 14
-17 11 -23 -4z"/>
<path d="M6440 6030 c0 -5 5 -10 10 -10 6 0 10 5 10 10 0 6 -4 10 -10 10 -5 0
-10 -4 -10 -10z"/>
<path d="M6500 5970 c0 -5 5 -10 10 -10 6 0 10 5 10 10 0 6 -4 10 -10 10 -5 0
-10 -4 -10 -10z"/>
<path d="M7591 5064 c0 -11 3 -14 6 -6 3 7 2 16 -1 19 -3 4 -6 -2 -5 -13z"/>
<path d="M8003 5015 c0 -8 4 -12 9 -9 5 3 6 10 3 15 -9 13 -12 11 -12 -6z"/>
<path d="M8069 4979 c-2 -33 2 -106 8 -134 5 -24 7 -26 12 -12 12 32 2 139
-14 155 -3 3 -5 -1 -6 -9z"/>
<path d="M8001 4913 c2 -64 17 -135 18 -90 1 12 5 16 14 11 7 -5 6 0 -3 11 -8
11 -10 16 -3 11 10 -5 13 9 12 58 -1 58 -3 66 -21 66 -17 0 -19 -7 -17 -67z"/>
<path d="M8134 4884 c3 -9 6 -22 6 -30 0 -8 5 -14 10 -14 6 0 10 14 10 30 0
21 -5 30 -16 30 -11 0 -14 -5 -10 -16z"/>
<path d="M8079 4713 c-13 -17 -13 -17 6 -3 11 8 22 16 24 17 2 2 0 3 -6 3 -6
0 -17 -8 -24 -17z"/>
<path d="M1855 7790 c3 -5 10 -10 16 -10 5 0 9 5 9 10 0 6 -7 10 -16 10 -8 0
-12 -4 -9 -10z"/>
<path d="M962 7228 c-15 -18 2 -99 24 -115 22 -16 41 -16 84 -2 31 11 32 14
27 53 -4 25 -14 48 -27 58 -26 21 -93 24 -108 6z m96 -55 c3 -17 -3 -24 -22
-29 -33 -8 -46 1 -46 32 0 22 4 25 33 22 24 -2 33 -8 35 -25z"/>
<path d="M2990 4670 c0 -5 5 -10 10 -10 6 0 10 5 10 10 0 6 -4 10 -10 10 -5 0
-10 -4 -10 -10z"/>
<path d="M1920 4441 c0 -5 -7 -17 -16 -26 -9 -9 -14 -18 -11 -21 3 -3 15 9 27
25 12 17 17 31 11 31 -6 0 -11 -4 -11 -9z"/>
<path d="M6215 5180 c3 -5 8 -10 11 -10 2 0 4 5 4 10 0 6 -5 10 -11 10 -5 0
-7 -4 -4 -10z"/>
<path d="M5950 5136 c0 -2 7 -6 15 -10 8 -3 15 -1 15 4 0 6 -7 10 -15 10 -8 0
-15 -2 -15 -4z"/>
<path d="M6015 5130 c3 -5 10 -10 16 -10 5 0 9 5 9 10 0 6 -7 10 -16 10 -8 0
-12 -4 -9 -10z"/>
<path d="M6032 5065 c0 -16 2 -22 5 -12 2 9 2 23 0 30 -3 6 -5 -1 -5 -18z"/>
<path d="M5962 5069 c2 -6 8 -10 13 -10 5 0 11 4 13 10 2 6 -4 11 -13 11 -9 0
-15 -5 -13 -11z"/>
<path d="M5870 5042 c0 -15 4 -20 16 -15 9 3 12 9 7 12 -4 3 -11 10 -15 15 -5
5 -8 0 -8 -12z"/>
<path d="M6050 5036 c0 -2 7 -6 15 -10 8 -3 15 -1 15 4 0 6 -7 10 -15 10 -8 0
-15 -2 -15 -4z"/>
<path d="M5840 5000 c0 -5 5 -10 10 -10 6 0 10 5 10 10 0 6 -4 10 -10 10 -5 0
-10 -4 -10 -10z"/>
<path d="M640 4940 c0 -16 4 -30 10 -30 5 0 8 13 7 30 -3 39 -17 39 -17 0z"/>
<path d="M516 4361 c-10 -11 -13 -22 -8 -25 6 -3 12 0 15 6 4 10 7 11 18 1 18
-18 59 -16 59 1 0 17 -5 21 -41 29 -19 5 -31 1 -43 -12z"/>
<path d="M467 4314 c-14 -14 -7 -22 14 -17 18 5 20 3 14 -15 -5 -17 -3 -21 9
-16 13 5 30 33 24 40 -8 8 -55 14 -61 8z"/>
<path d="M567 4280 c6 -23 31 -46 40 -36 4 4 3 10 -3 14 -6 4 -13 15 -17 25
-9 24 -26 22 -20 -3z"/>
<path d="M610 4279 c0 -5 5 -7 10 -4 6 3 10 8 10 11 0 2 -4 4 -10 4 -5 0 -10
-5 -10 -11z"/>
<path d="M1017 4403 c-6 -10 -10 -66 -7 -108 1 -26 2 -27 9 -10 15 36 24 125
13 125 -6 0 -13 -3 -15 -7z"/>
<path d="M10056 4420 c-11 -3 -15 -9 -10 -13 10 -6 42 9 34 16 -3 3 -14 1 -24
-3z"/>
<path d="M9980 4410 c0 -5 5 -10 10 -10 6 0 10 5 10 10 0 6 -4 10 -10 10 -5 0
-10 -4 -10 -10z"/>
<path d="M9985 4350 c-4 -6 -4 -10 -1 -10 2 0 11 -3 20 -6 9 -3 16 -2 16 4 0
14 -28 23 -35 12z"/>
<path d="M9991 4284 c0 -11 3 -14 6 -6 3 7 2 16 -1 19 -3 4 -6 -2 -5 -13z"/>
<path d="M8800 4238 c0 -19 2 -20 10 -8 13 19 13 30 0 30 -5 0 -10 -10 -10
-22z"/>
<path d="M9700 4309 c0 -5 5 -7 10 -4 6 3 10 8 10 11 0 2 -4 4 -10 4 -5 0 -10
-5 -10 -11z"/>
<path d="M8896 3462 c-8 -13 11 -35 23 -28 16 10 14 36 -3 36 -8 0 -17 -4 -20
-8z"/>
<path d="M9075 3450 c-3 -5 1 -10 10 -10 9 0 13 5 10 10 -3 6 -8 10 -10 10 -2
0 -7 -4 -10 -10z"/>
<path d="M9145 3450 c3 -5 8 -10 11 -10 2 0 4 5 4 10 0 6 -5 10 -11 10 -5 0
-7 -4 -4 -10z"/>
<path d="M10300 2956 c0 -20 5 -36 10 -36 6 0 10 13 10 29 0 17 -4 33 -10 36
-6 4 -10 -8 -10 -29z"/>
<path d="M9297 3164 c-10 -11 -9 -104 2 -104 5 0 12 12 15 28 7 31 -6 87 -17
76z"/>
<path d="M9810 2903 c0 -10 4 -14 8 -8 4 6 11 13 16 18 5 4 2 7 -7 7 -10 0
-17 -8 -17 -17z"/>
<path d="M10046 1471 c-4 -7 -5 -15 -2 -18 9 -9 19 4 14 18 -4 11 -6 11 -12 0z"/>
<path d="M5870 1201 c0 -6 5 -13 10 -16 6 -3 10 1 10 9 0 9 -4 16 -10 16 -5 0
-10 -4 -10 -9z"/>
<path d="M5856 1161 c-4 -7 -5 -15 -2 -18 9 -9 19 4 14 18 -4 11 -6 11 -12 0z"/>
<path d="M5832 1121 c2 -7 7 -12 11 -12 12 1 9 15 -3 20 -7 2 -11 -2 -8 -8z"/>
<path d="M6098 1195 c-10 -13 -15 -31 -12 -39 9 -24 24 -19 24 8 0 13 6 26 13
29 8 3 9 8 2 15 -7 7 -15 3 -27 -13z"/>
<path d="M9985 9940 c-4 -6 -3 -16 3 -22 6 -6 12 -6 17 2 4 6 3 16 -3 22 -6 6
-12 6 -17 -2z"/>
<path d="M10030 9931 c0 -12 50 -44 57 -37 3 3 -2 8 -11 12 -9 3 -16 12 -16
20 0 8 -7 14 -15 14 -8 0 -15 -4 -15 -9z"/>
<path d="M2351 9908 c-63 -4 -117 -10 -119 -13 -2 -2 -7 -25 -10 -51 -3 -32
-7 -42 -13 -31 -13 23 -56 29 -92 13 -18 -9 -54 -20 -81 -26 -27 -6 -59 -21
-71 -33 -13 -12 -73 -62 -135 -112 -67 -54 -138 -122 -177 -170 -79 -97 -93
-123 -72 -136 8 -5 234 -9 549 -9 294 0 542 0 550 -1 36 -5 70 2 84 16 22 23
37 18 30 -9 l-6 -24 271 -1 c149 -1 271 1 271 4 0 10 -89 121 -127 157 -43 42
-169 118 -195 118 -16 0 -158 -136 -158 -152 0 -5 -5 -8 -11 -8 -11 0 31 80
60 114 15 18 15 19 -14 12 -16 -3 -65 -8 -107 -9 -43 -2 -81 -7 -84 -10 -4 -4
-10 -43 -14 -87 -8 -88 -13 -99 -38 -84 -14 9 -18 30 -20 108 -1 53 -7 96 -11
96 -5 0 -15 -7 -22 -16 -11 -13 -24 -15 -66 -10 -29 3 -53 4 -53 0 0 -10 22
-49 40 -69 10 -11 20 -37 22 -57 l4 -36 -31 20 c-16 12 -36 28 -43 37 -37 46
-121 125 -147 138 -16 8 -42 28 -56 44 -14 15 -38 33 -52 38 -32 12 -58 84
-38 104 9 9 75 12 239 13 l227 1 -1 29 c-1 16 -2 41 -3 56 -1 22 -8 29 -38 37
-43 12 -78 12 -242 -1z m-124 -283 c8 -8 19 -15 24 -15 5 0 9 -4 9 -10 0 -5
-21 -10 -47 -10 -44 1 -47 2 -29 15 11 8 16 16 10 17 -5 0 -13 2 -19 3 -5 2
-14 3 -18 4 -5 0 -5 6 -1 12 8 13 51 3 71 -16z"/>
<path d="M2708 9883 c7 -3 16 -2 19 1 4 3 -2 6 -13 5 -11 0 -14 -3 -6 -6z"/>
<path d="M1016 9612 c-24 -23 12 -64 95 -110 20 -11 45 -26 56 -32 15 -10 25
-10 39 -2 10 6 14 12 9 12 -6 0 -38 26 -70 58 -55 53 -116 88 -129 74z"/>
<path d="M1479 9558 c-1 -13 -1 -48 0 -80 2 -44 -1 -58 -15 -66 -10 -6 -15
-16 -11 -26 9 -23 31 -20 42 6 6 12 21 25 33 28 22 5 34 26 58 100 4 11 -7 19
-40 28 -25 6 -46 16 -46 22 0 21 -20 9 -21 -12z"/>
<path d="M3500 9556 c0 -14 31 -66 39 -66 14 0 1 37 -20 56 -10 9 -19 14 -19
10z"/>
<path d="M1215 9523 c8 -15 15 -35 15 -43 0 -19 89 -60 131 -60 28 0 30 2 18
16 -14 17 -47 39 -131 88 l-48 28 15 -29z"/>
<path d="M3630 9511 c0 -12 5 -21 10 -21 6 0 10 6 10 14 0 8 -4 18 -10 21 -5
3 -10 -3 -10 -14z"/>
<path d="M3570 9470 c0 -5 9 -10 19 -10 11 0 23 5 26 10 4 6 -5 10 -19 10 -14
0 -26 -4 -26 -10z"/>
<path d="M10792 9330 c0 -14 2 -19 5 -12 2 6 2 18 0 25 -3 6 -5 1 -5 -13z"/>
<path d="M9515 9249 c-71 -4 -164 -12 -205 -18 -41 -6 -156 -10 -255 -8 -155
2 -184 0 -212 -15 -32 -18 -50 -49 -38 -68 12 -19 112 -39 225 -45 63 -3 239
0 390 7 391 18 1341 18 1363 -1 16 -12 17 -7 17 69 0 69 -2 81 -14 71 -17 -14
-481 -7 -566 8 -58 11 -487 10 -705 0z"/>
<path d="M0 9120 l0 -30 79 0 c44 0 82 4 85 9 3 5 -24 14 -61 21 -37 6 -75 16
-85 21 -16 8 -18 6 -18 -21z"/>
<path d="M5540 9111 c-19 -11 -150 -77 -290 -146 -230 -115 -319 -155 -417
-187 -18 -6 -47 -24 -65 -38 l-33 -28 100 19 c55 11 124 26 153 35 56 16 296
130 393 186 60 35 218 158 219 171 0 12 -23 7 -60 -12z"/>
<path d="M1700 9024 c0 -8 5 -12 10 -9 6 4 8 11 5 16 -9 14 -15 11 -15 -7z"/>
<path d="M5205 8602 c-27 -15 -52 -29 -55 -32 -5 -5 -15 -10 -97 -46 -24 -11
-43 -22 -43 -26 0 -11 6 -10 85 11 87 24 200 81 200 101 0 24 -37 21 -90 -8z"/>
<path d="M4790 8610 c-25 -4 -70 -17 -100 -27 -30 -11 -77 -25 -103 -32 -49
-12 -180 -71 -173 -78 2 -3 30 3 63 11 32 9 96 25 143 35 88 20 331 89 339 97
7 7 -120 2 -169 -6z"/>
<path d="M10793 8545 c0 -22 2 -30 4 -17 2 12 2 30 0 40 -3 9 -5 -1 -4 -23z"/>
<path d="M8764 8552 c-58 -24 -102 -61 -85 -71 7 -5 58 -11 114 -15 142 -9
267 -24 447 -52 85 -13 245 -31 355 -39 110 -8 241 -20 290 -26 50 -6 266 -12
481 -14 216 -2 401 -6 413 -10 20 -6 21 -3 21 72 -1 59 -3 74 -11 60 -9 -16
-33 -17 -304 -17 -162 1 -310 4 -329 7 -30 5 -34 8 -26 23 5 10 6 20 3 24 -3
3 2 6 13 7 10 0 14 3 7 5 -24 10 -2 34 26 28 18 -5 23 -3 16 4 -7 8 -161 13
-485 16 -261 2 -572 7 -690 10 -189 5 -220 3 -256 -12z"/>
<path d="M1 8370 c0 -36 2 -41 10 -27 7 12 7 27 0 45 -9 25 -9 24 -10 -18z"/>
<path d="M9855 7935 c-165 -26 -448 -57 -582 -64 -72 -4 -134 -9 -138 -12 -12
-13 8 -38 38 -49 18 -6 106 -14 197 -17 134 -4 202 -1 360 18 214 25 678 37
908 24 107 -6 126 -10 143 -28 19 -21 19 -21 19 44 l0 64 -108 -3 c-59 -2
-195 3 -302 12 -305 24 -433 27 -535 11z"/>
<path d="M1095 7808 c-4 -20 -4 -41 0 -47 9 -16 32 -13 39 5 4 10 14 14 26 11
11 -3 20 -1 20 4 0 5 -9 10 -20 10 -11 1 -25 2 -32 3 -7 0 -15 12 -19 26 -6
23 -7 22 -14 -12z"/>
<path d="M1260 7670 c0 -5 5 -10 10 -10 6 0 10 5 10 10 0 6 -4 10 -10 10 -5 0
-10 -4 -10 -10z"/>
<path d="M10786 7648 c-15 -94 -26 -392 -26 -722 1 -367 10 -560 30 -580 7 -7
10 211 10 662 0 370 -2 672 -5 672 -2 0 -6 -15 -9 -32z"/>
<path d="M1430 7630 c0 -5 5 -10 10 -10 6 0 10 5 10 10 0 6 -4 10 -10 10 -5 0
-10 -4 -10 -10z"/>
<path d="M0 7279 c0 -135 3 -170 12 -161 7 7 20 12 29 12 10 0 30 11 45 23 26
22 28 30 33 131 3 59 3 113 -2 121 -4 7 -26 16 -50 20 -23 4 -48 12 -54 17
-10 8 -13 -25 -13 -163z"/>
<path d="M9486 6758 c-12 -135 -29 -249 -38 -254 -8 -5 -168 149 -168 162 0 8
-32 33 -42 34 -16 0 -7 -29 10 -35 18 -6 112 -144 112 -164 0 -6 4 -11 9 -11
9 0 107 -116 171 -202 14 -18 44 -52 67 -76 24 -24 43 -47 43 -53 0 -21 84
-99 119 -109 22 -7 205 -13 471 -16 239 -2 463 -6 498 -8 l62 -4 0 74 0 73
-369 -4 c-405 -5 -705 5 -742 26 -23 13 -23 13 18 20 57 10 635 17 843 10 198
-7 253 -4 247 12 -3 7 -11 11 -18 9 -31 -8 -490 -1 -560 8 -42 5 -180 7 -305
5 -126 -3 -247 -1 -269 5 -28 6 -51 22 -77 52 -21 24 -38 48 -38 54 0 6 -10
24 -22 39 -20 26 -21 33 -15 226 3 109 4 199 2 199 -1 0 -6 -33 -9 -72z"/>
<path d="M9160 6783 c0 -16 59 -77 67 -69 4 4 -10 23 -30 44 -20 20 -37 32
-37 25z"/>
<path d="M0 6466 c0 -22 48 -28 205 -23 198 7 234 25 45 23 -80 0 -169 3 -197
7 -44 6 -53 5 -53 -7z"/>
<path d="M9020 6395 c0 -3 11 -16 24 -28 13 -12 27 -38 31 -57 4 -19 11 -41
16 -50 4 -8 10 -23 13 -33 3 -10 10 -16 15 -12 5 3 12 1 16 -5 3 -6 0 -13 -8
-16 -28 -10 -13 -29 26 -31 30 -2 37 0 29 10 -5 6 -15 32 -22 56 -6 24 -22 53
-36 66 -13 12 -24 30 -24 39 0 11 -4 14 -12 10 -9 -6 -9 -3 0 9 12 14 9 18
-23 32 -41 17 -45 17 -45 10z"/>
<path d="M445 6260 c-4 -6 3 -10 14 -10 25 0 27 6 6 13 -8 4 -17 2 -20 -3z"/>
<path d="M335 6170 c-4 -6 5 -10 20 -10 15 0 24 4 20 10 -3 6 -12 10 -20 10
-8 0 -17 -4 -20 -10z"/>
<path d="M9180 6144 c-14 -2 -70 -6 -125 -10 -80 -5 -95 -8 -75 -16 35 -14
249 -14 280 0 24 10 24 11 3 11 -12 1 -25 6 -28 11 -3 6 -12 9 -18 9 -7 -1
-23 -3 -37 -5z"/>
<path d="M421 4751 c-16 -4 -28 -19 -38 -46 -19 -56 -10 -67 15 -19 12 23 30
44 42 47 11 3 20 10 20 16 0 12 -3 12 -39 2z"/>
<path d="M1378 4033 c6 -2 18 -2 25 0 6 3 1 5 -13 5 -14 0 -19 -2 -12 -5z"/>
<path d="M1404 3895 c-5 -29 -10 -35 -33 -35 -14 0 -33 -5 -41 -11 -11 -7 -3
-9 28 -5 56 7 59 9 64 51 5 45 -9 46 -18 0z"/>
<path d="M9091 3784 c0 -11 3 -14 6 -6 3 7 2 16 -1 19 -3 4 -6 -2 -5 -13z"/>
<path d="M0 3471 c0 -121 3 -151 12 -144 7 6 49 16 93 22 135 21 149 26 165
66 23 58 40 39 40 -44 0 -45 -23 -91 -46 -91 -4 0 -3 5 4 12 7 7 12 18 12 25
0 22 -27 14 -48 -14 -19 -26 -26 -28 -90 -28 -39 0 -73 -3 -77 -7 -4 -4 -20
-4 -36 -1 l-29 6 0 -102 c0 -84 3 -101 15 -101 9 0 15 -6 14 -12 -1 -7 0 -22
1 -33 2 -17 3 -16 9 5 7 23 8 22 12 -12 5 -36 4 -37 -23 -34 l-28 3 0 -499 c0
-471 1 -499 17 -494 45 14 180 46 195 46 38 0 131 44 230 108 57 37 135 80
173 96 39 16 94 39 124 52 29 13 61 24 71 24 10 0 44 12 76 26 33 14 77 32 99
39 73 24 178 65 189 74 6 5 49 29 96 53 47 25 160 84 251 131 91 48 191 96
222 106 31 11 71 26 89 34 118 51 239 87 291 87 26 0 105 15 222 42 62 14 226
90 245 113 14 17 13 17 -5 7 -21 -12 -130 -46 -180 -57 -16 -3 -64 -8 -105
-10 -89 -5 -305 -24 -338 -31 -12 -2 -27 -16 -32 -29 -12 -31 -42 -32 -63 -2
l-16 22 0 -27 c-1 -49 -19 -80 -44 -77 -12 2 -37 -7 -56 -19 -19 -11 -38 -19
-41 -17 -8 5 -6 86 5 173 l7 64 -38 -24 c-33 -21 -39 -32 -49 -81 -6 -30 -9
-72 -7 -93 3 -27 1 -35 -9 -32 -19 6 -27 41 -28 120 -1 70 -7 83 -31 68 -12
-7 -15 -38 -17 -140 0 -72 -3 -133 -5 -134 -1 -2 -43 -27 -93 -55 -109 -63
-122 -71 -159 -95 -21 -14 -31 -16 -34 -8 -6 18 -18 15 -64 -18 -22 -16 -48
-30 -57 -30 -9 0 -26 -7 -38 -15 -12 -9 -62 -28 -110 -44 -48 -16 -104 -36
-124 -44 -54 -24 -64 -12 -50 65 13 77 14 98 2 98 -8 0 -44 -148 -40 -166 5
-21 -15 -43 -54 -59 -23 -10 -56 -25 -74 -33 -18 -9 -35 -14 -38 -10 -3 3 -9
25 -13 49 l-8 44 -7 -52 c-6 -43 -13 -57 -41 -78 -18 -14 -36 -25 -39 -25 -10
0 -8 93 4 173 15 103 78 316 100 341 7 8 429 9 611 1 64 -2 197 10 215 20 1 1
5 44 9 96 3 51 11 97 17 101 6 3 -6 10 -27 13 -39 8 -436 9 -714 3 -90 -2
-166 0 -168 4 -2 4 10 8 28 10 28 3 33 8 39 38 12 55 33 522 26 551 -5 20 -13
26 -34 27 -16 1 -122 4 -238 7 -116 3 -245 6 -287 8 l-78 2 0 -154z m500 24
c0 -8 -5 -49 -11 -91 -12 -77 -37 -122 -61 -108 -7 4 -5 10 6 16 9 5 16 16 16
23 0 18 -20 20 -21 3 0 -7 -4 -4 -8 7 -8 19 -7 75 2 120 2 11 -3 25 -12 32
-13 10 -7 12 37 13 39 0 52 -4 52 -15z m-110 -129 c0 -30 -4 -57 -9 -60 -9 -6
-22 93 -14 107 13 21 23 1 23 -47z m-103 -132 c-3 -3 -12 -4 -19 -1 -8 3 -5 6
6 6 11 1 17 -2 13 -5z m-62 -244 c-3 -5 -10 -10 -16 -10 -5 0 -9 5 -9 10 0 6
7 10 16 10 8 0 12 -4 9 -10z m915 -45 c0 -8 -4 -15 -10 -15 -5 0 -7 -6 -4 -14
3 -7 -2 -16 -12 -20 -12 -5 -15 -2 -10 10 3 8 6 24 6 35 0 10 7 19 15 19 8 0
15 -7 15 -15z m250 -44 c0 -22 -4 -43 -10 -46 -6 -4 -10 12 -10 39 0 25 5 46
10 46 6 0 10 -18 10 -39z m260 -130 c0 -9 -24 -21 -41 -21 -14 0 14 29 29 30
6 0 12 -4 12 -9z m-1156 -21 c39 -14 35 -60 -8 -107 -74 -82 -112 -225 -102
-380 5 -85 4 -104 -9 -117 -9 -9 -23 -16 -31 -16 -8 0 -14 -3 -14 -8 0 -17
-71 -43 -140 -51 -41 -5 -78 -6 -82 -4 -12 7 -9 62 8 143 8 41 24 127 35 190
32 194 58 269 117 333 24 25 31 27 113 27 48 0 99 -4 113 -10z m-419 -89 c-3
-6 -11 -8 -17 -5 -6 4 -5 9 3 15 16 10 23 4 14 -10z"/>
<path d="M10052 3510 l1 -75 10 53 c7 36 7 59 -1 75 -9 18 -11 7 -10 -53z"/>
<path d="M2905 3150 c-9 -15 -1 -23 21 -18 15 3 16 4 1 16 -11 9 -17 10 -22 2z"/>
<path d="M1773 2218 c11 -29 30 -69 42 -88 11 -19 27 -48 35 -65 27 -54 109
-169 175 -245 102 -118 204 -251 323 -424 30 -43 75 -105 101 -137 26 -32 54
-71 61 -86 8 -15 48 -78 89 -140 120 -178 153 -228 196 -299 22 -37 55 -87 74
-113 19 -25 46 -69 60 -96 27 -52 63 -106 92 -139 10 -10 23 -32 30 -50 7 -17
26 -51 41 -75 15 -25 28 -52 28 -61 0 -9 10 -25 21 -36 12 -10 26 -30 31 -44
6 -14 12 -20 15 -13 2 6 -3 25 -11 42 -9 16 -16 34 -16 40 0 14 -17 52 -40 86
-11 17 -24 41 -30 55 -19 46 -34 75 -61 115 -14 22 -36 61 -49 88 -13 26 -32
55 -42 64 -10 9 -18 24 -18 34 0 18 -27 74 -47 96 -6 7 -14 26 -18 43 -4 16
-13 30 -21 30 -8 0 -14 6 -14 13 0 24 -88 189 -109 203 -12 9 -28 30 -36 47
-16 34 -24 48 -67 110 -16 22 -28 45 -28 50 0 6 -18 34 -40 63 -22 29 -40 55
-40 58 0 2 -13 19 -29 36 -56 62 -83 95 -123 150 -74 102 -153 203 -195 249
-24 25 -43 49 -43 53 0 4 -21 32 -47 62 -58 65 -77 93 -168 235 -63 98 -103
141 -133 141 -6 0 -1 -23 11 -52z"/>
<path d="M2950 2160 c0 -6 4 -10 8 -10 4 0 15 -12 24 -27 9 -16 44 -59 77 -98
33 -38 84 -107 113 -153 29 -46 76 -117 103 -159 28 -42 62 -97 76 -122 80
-142 111 -199 173 -321 37 -74 88 -171 113 -215 52 -93 173 -328 222 -433 41
-85 61 -108 61 -68 0 15 -7 43 -15 63 -8 20 -22 63 -30 97 -9 34 -20 70 -24
81 -5 11 -16 36 -25 57 -9 20 -16 39 -16 43 0 10 -81 175 -112 228 -15 26 -28
54 -28 62 0 7 -4 15 -8 17 -9 3 -112 210 -112 224 0 6 -13 31 -30 57 -16 26
-30 52 -30 58 0 5 -16 35 -35 65 -19 30 -35 56 -35 59 0 2 -12 17 -26 32 -37
40 -46 52 -89 113 -21 30 -46 62 -54 71 -9 9 -50 52 -91 96 -41 43 -85 90 -97
103 -50 57 -113 101 -113 80z"/>
<path d="M8640 1386 c0 -2 7 -7 16 -10 8 -3 12 -2 9 4 -6 10 -25 14 -25 6z"/>
<path d="M2 1350 c0 -14 2 -19 5 -12 2 6 2 18 0 25 -3 6 -5 1 -5 -13z"/>
<path d="M1 1284 c0 -11 3 -14 6 -6 3 7 2 16 -1 19 -3 4 -6 -2 -5 -13z"/>
<path d="M0 626 l0 -626 1903 1 c1480 1 1883 4 1817 13 -47 7 -175 13 -285 14
-110 1 -208 5 -217 8 -10 3 -19 15 -19 27 -1 16 -3 14 -8 -8 -6 -28 -10 -30
-46 -29 -611 23 -1839 27 -2034 6 -68 -7 -127 -10 -131 -5 -5 4 -20 71 -34
148 -51 272 -130 491 -258 708 -15 26 -28 52 -28 57 0 18 -68 80 -88 80 -21 0
-21 -2 9 -87 17 -49 48 -131 69 -183 90 -226 139 -376 175 -537 28 -125 31
-159 13 -164 -30 -9 -788 7 -797 16 -10 10 -19 414 -22 913 -1 144 -5 265 -10
268 -5 3 -9 -260 -9 -620z"/>
<path d="M6140 570 c0 -5 7 -10 15 -10 8 0 15 5 15 10 0 6 -7 10 -15 10 -8 0
-15 -4 -15 -10z"/>
<path d="M6234 533 c4 -5 13 -8 19 -8 7 0 12 -5 12 -12 0 -6 3 -15 8 -19 4 -4
7 -1 7 7 0 19 -20 39 -39 39 -8 0 -11 -3 -7 -7z"/>
<path d="M6415 510 c-28 -7 -27 -8 13 -9 27 -1 41 3 37 9 -7 11 -7 11 -50 0z"/>
<path d="M4935 330 c3 -5 10 -10 16 -10 5 0 9 5 9 10 0 6 -7 10 -16 10 -8 0
-12 -4 -9 -10z"/>
<path d="M4800 295 c0 -8 27 -35 34 -35 14 0 4 20 -14 30 -11 6 -20 8 -20 5z"/>
<path d="M4776 222 c-4 -13 -5 -26 -2 -29 10 -11 18 4 14 29 l-4 23 -8 -23z"/>
<path d="M4700 216 c0 -9 5 -16 10 -16 6 0 10 4 10 9 0 6 -4 13 -10 16 -5 3
-10 -1 -10 -9z"/>
<path d="M4778 153 c7 -3 16 -2 19 1 4 3 -2 6 -13 5 -11 0 -14 -3 -6 -6z"/>
<path d="M6600 28 c-3 -3 -90 -9 -195 -13 -104 -4 -192 -9 -194 -11 -2 -2 216
-4 485 -3 296 1 475 4 454 10 -39 9 -542 25 -550 17z"/>
<path d="M5065 9 c-22 -3 145 -6 370 -6 283 0 382 3 320 8 -99 9 -626 8 -690
-2z"/>
<path d="M5973 3 c15 -2 39 -2 55 0 15 2 2 4 -28 4 -30 0 -43 -2 -27 -4z"/>
<path d="M6133 3 c15 -2 37 -2 50 0 12 2 0 4 -28 4 -27 0 -38 -2 -22 -4z"/>
<path d="M7213 3 c15 -2 37 -2 50 0 12 2 0 4 -28 4 -27 0 -38 -2 -22 -4z"/>
</g>
</svg>
